/* XPM */
static char *_a92472cbb6e4c45a35870ec0a0d391d[] = {
/* columns rows colors chars-per-pixel */
"79 79 253 2 ",
"   c #392D35",
".  c #332C36",
"X  c #692A13",
"o  c #7B3315",
"O  c #743014",
"+  c #482928",
"@  c #503434",
"#  c #6D362A",
"$  c #5C2510",
"%  c #7C460F",
"&  c #6D4833",
"*  c #1D3050",
"=  c #2C3650",
"-  c #203B66",
";  c #21457D",
":  c #2C486D",
">  c #1F4379",
",  c #54504F",
"<  c #6B6D75",
"1  c #5B5C60",
"2  c #873718",
"3  c #973C1B",
"4  c #A23F1D",
"5  c #8E3F28",
"6  c #984616",
"7  c #8C4F10",
"8  c #A8451D",
"9  c #BA571B",
"0  c #AE5118",
"q  c #967513",
"w  c #B06E14",
"e  c #974125",
"r  c #AD4421",
"t  c #B34621",
"y  c #BB4922",
"u  c #B84821",
"i  c #BA5120",
"p  c #C7661A",
"a  c #D86B1C",
"s  c #D9771A",
"d  c #C97A17",
"f  c #EA791B",
"g  c #FA7C1C",
"h  c #F57A1C",
"j  c #E06D1D",
"k  c #C34C23",
"l  c #CA4F25",
"z  c #CD5125",
"x  c #C75422",
"c  c #D45326",
"v  c #D95527",
"b  c #DC5628",
"n  c #DA5A25",
"m  c #E45A29",
"M  c #EB5C2B",
"N  c #E25A28",
"B  c #F15F2B",
"V  c #D96421",
"C  c #DD7A21",
"Z  c #ED6426",
"A  c #EE6229",
"S  c #E86823",
"D  c #F36C24",
"F  c #F16429",
"G  c #F06726",
"H  c #E87423",
"J  c #F47322",
"K  c #F57B23",
"L  c #F97722",
"P  c #C95A1E",
"I  c #887F54",
"U  c #D68818",
"Y  c #D69716",
"T  c #C98F15",
"R  c #E98718",
"E  c #FF8617",
"W  c #FE8A16",
"Q  c #FB841B",
"!  c #F6881A",
"~  c #E7991A",
"^  c #FD9415",
"/  c #F99918",
"(  c #F09B0E",
")  c #D3AA16",
"_  c #FFA30F",
"`  c #FEA90F",
"'  c #E8A719",
"]  c #FDA414",
"[  c #FDAB14",
"{  c #F9A71B",
"}  c #FBB719",
"|  c #E8B718",
" . c #F78723",
".. c #F69821",
"X. c #E88822",
"o. c #FBAF21",
"O. c #FDC41C",
"+. c #FECC1B",
"@. c #FAC619",
"#. c #FED21B",
"$. c #FBD91A",
"%. c #EAC819",
"&. c #FEE41B",
"*. c #FFEA1B",
"=. c #A0A059",
"-. c #214682",
";. c #234A85",
":. c #244D8A",
">. c #284F88",
",. c #27508C",
"<. c #2A538D",
"1. c #2A5283",
"2. c #2A5593",
"3. c #2D5996",
"4. c #2E5C9A",
"5. c #275291",
"6. c #335C94",
"7. c #315E9B",
"8. c #375D94",
"9. c #33598A",
"0. c #32629D",
"q. c #3B649A",
"w. c #3364A2",
"e. c #3668A4",
"r. c #3A6AA4",
"t. c #366AAA",
"y. c #3A6DAB",
"u. c #3667A5",
"i. c #3E71AD",
"p. c #3D71A4",
"a. c #3B6FB0",
"s. c #3D73B3",
"d. c #3D7AB7",
"f. c #456B9C",
"g. c #4D7293",
"h. c #416DA5",
"j. c #4274AC",
"k. c #4A7BAD",
"l. c #4774A8",
"z. c #537AA9",
"x. c #4176B2",
"c. c #447AB5",
"v. c #4A7DB5",
"b. c #437BB9",
"n. c #497FB9",
"m. c #4077B8",
"M. c #527EB4",
"N. c #3F81BF",
"B. c #4D82B5",
"V. c #4C82BB",
"C. c #4281BF",
"Z. c #5385B5",
"A. c #5385BB",
"S. c #558BBB",
"D. c #5A8DBB",
"F. c #5789B7",
"G. c #5C91BC",
"H. c #5A81AC",
"J. c #658BB6",
"K. c #6895BD",
"L. c #789ABC",
"P. c #6382A6",
"I. c #4885C3",
"U. c #548BC3",
"Y. c #5B8DC3",
"T. c #5189C2",
"R. c #5D92C5",
"E. c #5994CC",
"W. c #5996CC",
"Q. c #4C91CC",
"!. c #6393C4",
"~. c #6499CC",
"^. c #6A9BCD",
"/. c #6798C6",
"(. c #759DC6",
"). c #629CD1",
"_. c #6A9ED1",
"`. c #628FC3",
"'. c #6DA2CC",
"]. c #68A0CA",
"[. c #77A4CA",
"{. c #6BA4D4",
"}. c #6CA9D7",
"|. c #6DAAD9",
" X c #65A2D3",
".X c #74A5D4",
"XX c #75AAD5",
"oX c #7AAAD5",
"OX c #72ACDA",
"+X c #7AADDC",
"@X c #78A5D1",
"#X c #7CB3DC",
"$X c #77B2DB",
"%X c #7DB4E0",
"&X c #909CA1",
"*X c #91989C",
"=X c #86A9CA",
"-X c #84AED6",
";X c #83B4DC",
":X c #89B8DA",
">X c #97BAD5",
",X c #91B2CE",
"<X c #A1BED5",
"1X c #8ABEE3",
"2X c #83B8E1",
"3X c #96BFE2",
"4X c #809FC2",
"5X c #9CC4DE",
"6X c #8EC0DE",
"7X c #A7C6DD",
"8X c #8CC2E4",
"9X c #94C5E4",
"0X c #96C9E6",
"qX c #9BCAE5",
"wX c #9BCCE9",
"eX c #98C8E7",
"rX c #9CD1EC",
"tX c #A5CDE7",
"yX c #ABD4E6",
"uX c #A4D3EB",
"iX c #AAD5EA",
"pX c #ABD8EB",
"aX c #A3D1E6",
"sX c #B4D5EB",
"dX c #BCDCEE",
"fX c #B6D6E9",
"gX c #ABD9F1",
"hX c #B4DCF3",
"jX c #BCDEF4",
"kX c #B7DFF8",
"lX c #B3CEE3",
"zX c #BDE1F3",
"xX c #B8E0F7",
"cX c #BEE0EF",
"vX c #C4DDEB",
"bX c #C1DFF2",
"nX c #C9E2EE",
"mX c #C3E2F3",
"MX c #CAE5F3",
"NX c #CDE9F5",
"BX c #CAE9F8",
"VX c #D3EBF5",
"CX c #DCEDF4",
"ZX c #D4ECF9",
"AX c #DBEEF9",
"SX c #D1E7F1",
"DX c #DEF0F6",
"FX c #DDF1FB",
"GX c #D2F1FB",
"HX c #D4E7EF",
"JX c #E2F4FB",
"KX c #EAF6FB",
"LX c #C7D7DE",
/* pixels */
"j.v.j.q.r.k.B.Z.F.F.Z.B.c.j.i.i.c.~.#X#X'.>XfX@XR.D.U.S.S.A.T.A.A.V.U.R.~.{.{.~.A.k.j.r.r.r.r.r.r.u.0.0.0.u.u.e.t.i.i.v.V.A.v.x.k.(.oX!.M.x.y.u.6.,.>.<.6.q.r.",
"u.0.7.7.7.0.q.h.k.Z.F.S.B.v.x.i.i.x.S.{.$XtXvX-X/.R.D.D.S.S.A.A.A.A.V.V.U.R.~.^.^.^.R.Y.A.A.Z.v.v.k.k.j.r.r.e.u.0.w.r.t.i.j.s.s.j.j.A.@X@X`.A.M.k.r.7.<.,.,.3.",
"0.7.7.0.7.0.0.0.0.p.k.Z.S.S.B.c.x.x.x.v.R.oXoX'.'.'./.R.D.D.S.S.A.V.V.V.A.V.U.Y.~.~.^.^.^.^.^.^.^.^.~.R.Y.Z.v.x.j.h.r.r.t.y.i.i.i.i.i.i.n.Y.^.^.!.Y.v.h.e.0.6.",
"0.7.0.0.0.0.0.u.e.e.r.j.Z.S.S.S.B.B.n.B./.:X@X^.:X5XoX'./.!.R.D.S.A.B.V.A.A.T.V.B.A.Y.!.~.~.^.^.^.^.~.~.!.!.R.!.R.Y.S.v.j.j.y.i.i.i.i.s.s.s.s.c.V.U.U.c.y.r.u.",
"0.0.0.0.0.u.e.e.e.e.e.e.j.Z.S.D.S.B.B.B.5XSX>X/.yXSX:X'.'.'.'.'.'.(.(./.!.A.V.V.V.V.n.n.V.A.Y.Y.R.Y.U.Z.n.v.n.V.A.S.Y.Y.Y.V.k.i.y.y.i.s.s.s.s.i.t.r.r.u.0.3.<.",
"0.0.u.u.u.u.e.e.e.e.e.r.r.k.F.D.D.S.B.B.[.5X[.B.[.>X@X'.'..X:XyXdXMXNXMXyX[.B.v.n.V.V.V.n.c.c.x.x.j.i.y.t.t.t.t.t.t.x.c.n.V.V.c.t.r.t.y.y.s.s.y.u.3.2.<.:.;.;.",
"j.u.u.u.u.u.u.e.e.e.e.r.r.r.v.F.D.G.S.A.B.c.c.c.v.D.^.'.'.:XMXFXFXFXFXFXFXMXJ.i.j.j.c.c.x.x.c.c.c.c.c.b.b.b.m.s.y.t.t.y.s.x.m.m.m.s.t.u.t.y.s.s.s.i.t.u.0.4.3.",
"i.u.u.u.u.u.u.u.u.e.e.e.r.r.p.B.D./.'.'./.S.B.v.v.B./.'.'.sXAXFXFXJXJXFXVXfXJ.j.i.i.i.j.i.i.j.x.x.c.c.m.m.b.b.b.b.m.y.u.u.t.s.s.s.s.s.s.y.t.y.s.s.s.s.s.s.s.s.",
"r.u.u.u.u.u.u.u.0.u.u.e.e.e.r.j.(.5XpXsX5X].S.Z.B.Z./.'.'.fXFXFXJXJXFXAX7XK.k.i.i.j.n.Z.A.A.v.v.v.n.n.c.c.b.b.b.b.b.b.m.t.0.u.t.a.s.s.s.s.s.s.s.s.s.s.s.s.s.s.",
"u.0.0.0.0.0.0.7.4.0.0.0.0.u.r.F.5XdXmXmXzX:XK.D.D.G.!./.'.yXAXFXJXJXJXnXK.v.c.j.c.A.^..XoXoXoX.X{./.!.S.V.n.b.m.b.b.b.b.b.i.4.3.w.u.t.y.a.s.s.s.s.s.s.s.s.s.s.",
"0.0.4.4.4.4.4.4.4.4.4.4.0.r.Z.>XcXMXNXNXNXyX[.G.D.G.G./.:XdXFXFXJXJXJXfX(.S.S.Z.A.~..X.X.X.X.XoXoXoXoXoX.X~.A.n.c.c.b.b.m.m.i.3.:.:.2.3.4.w.u.t.a.a.a.a.y.t.t.",
"0.4.0.0.4.4.4.4.4.4.0.h.M.K.5XzXMXNXNXNXNXNX5X[././.[.:XdXNXFXJXJXJXJXVX,X(././.!.R.~.^..X.X.X.X.XoXoXoXoX.X.X~.A.c.x.s.m.m.m.i.4.:.:.:.:.:.:.2.4.w.w.7.3.2.:.",
"r.k.F.D.k.r.0.e.h.M.K.,XyXdXmXMXNXNXNXNXNXNXMXsX7X7XfXMXNXVXFXJXJXJXJXJXMXyXtX7X>X@X!.G.R./.^.'.^..X.X.X.X.X.X.X.XY.v.y.t.s.s.s.y.3.,.:.;.;.;.:.:.:.<.f.q.,.;.",
"[.8XwXaX:X(.K.(.,XyXNXNXmXzXmXMXNXVXVXVXNXNXNXMXNXNXMXMXNXVXFXJXJXJXJXJXCX*X@ 1 VXmX:XG.S.S.S.D.D.F.D.!.!.~./././.~.R.v.y.w.w.u.t.w.4.2.,.:.:.:.;.;.q.,X,Xq.;.",
"eXwXuXuXuXuXhXNXZXZXVXMXmXdXzXNXVXVXVXVXdXmXMXMXNXNXNXMXMXVXFXJXJXJXJXJX*Xe b v *XCXMXK.k.B.Z.F.Z.r.3.3.7.q.h.h.h.h.h.k.k.w.3.4.4.4.4.4.3.2.,.:.:.;.q.=X,Xq.;.",
"eXwXaXaXwXiXNXZXZXVXMXzXdXdXsXMXVXVXVXVXqXtXjXMXMXMXMXMXMXMXAXFXJXCX&X&Xr M c m k , &Xg.<.0.h.k.Z.B.r.<.:.;.;.;.;.;.;.;.<.6.<.:.,.5.2.2.3.3.3.2.5.,.:.<.:.;.:.",
"eXeXwXeX:XdXVXZXNXmXdXdXsXuX9XjXVXVXVXZXiX2X9XsXmXmXMXMXMXMXNXvX< 1 3 3 c M 3 v N O 3 #   - ; 6.h.v.v.r.2.:.:.;.:.:.:.:.:.:.:.:.:.;.;.:.:.:.:.5.2.2.2.5.,.:.:.",
"eXeXeX:X;XbXAXmXhXdXdXdXuX1X;XiXNXZXZXZXdX;XW.;XwXiXpXsX&X, 3 t z v M c M M 4 b M N M M M 8 4 3 @ 0.j.x.r.3.3.3.3.3.3.3.2.5.,.:.:.;.;.;.:.:.:.:.:.:.5.2.3.2.5.",
"eXeXeX#X:XbXVXqX0XpXsXsX8X1X9XwXzXVXZXZXMX;XW.|.$X$X$XL.e z k m M N M b M M 6 v M M M b M M N M v . : 0.r.t.y.y.s.s.s.s.y.t.0.2.,.:.;.:.:.:.8.f.q.q.f.8.3.2.2.",
"eXeXeX#X#XdXmX:XOX1XwX0X:X0XuXuXaXdXMXNXsXXXQ.|.$Xg.y M M t M D D A 2 v Q U m 2 G M 2 b Z h K M b M M X - 3.4.w.u.t.t.t.y.y.y.t.w.2.:.:.:.f.=X7X,X=X<X=XJ.z.z.",
"8X0X0X;XOXeX9XOX}.}.}.}.#XqXuXuX6X;XaXiX8X{.Q.}.g.# M M m 4 M M 2 m m M R 7 M c P L b m A 3 m J M M M m 2 3.3.3.2.2.3.3.3.4.4.0.w.3.:.;.q.>XVXFXVXZXFXFXZXvXMX",
"XX1X0X;XOX|.OX|.}.}.{.{.OXeXuXuX0XXXOX$X$X}.p.  M M M M h 9 b G J K { w r M 4 k t X / /  .D g w 9 J M M M t + t.t.w.4.3.,.:.;.;.;.;.;.;.L.mXFXZXmXBXAXFXJXJXJX",
"'.1X9X#XOXOXOX|.|.}.}.}.{.:X0X0X0X'.|.$X$X/.  t M M M M S m O 0 ~ T % o m M b m M l 2 w T R p 3 m a J M M M c <.t.t.t.t.w.3.,.;.;.-.;.-.,XVXZXMXzXmXBXAXFXFXFX",
"^.;X;XOXOXOXOXOXOXOXOX}.{.{.#X#X#XE. X$X$X1 t M M M Z M M M k o 8 o k M Z G M M Z M c 4 o 3 2 M M m M M M M M @ <.t.t.t.t.t.4.:.;.-.;.;.[.MXMXmXjXjXmXMXBXZXBX",
"R.~.U.E.{.OXOXOXOXOX|.|.|.}. X X XU.W.|.g.v y y D ! m b M N v M K ! f V m c M b M n V f R A M c y M M n a v y v t 4.w.w.7.4.2.:.;.-.;.;.f.7XbXjXjXjXjXjXjXjXmX",
"V.b.m.s.U.{.OXOXOXOX|.}.}.|.|.{. XW.Q.g.# t z c 9 S M c A J A J s V M M Z S D J A M M S f ! D m t M M m N y z z k * ;.:.;.;.;.;.;.;.;.;.;.[.fXjXjXjXjXjXmXmXBX",
"m.m.s.t.t.U. X|.OXOXOX X X}.|.|.{.W.I.3 8 Z J M n X M M G ^ f m M M t k M M M c M m c c m D h ! ^ H b m o M M J M r   -.-.-.-.-.;.;.;.;.;.[.fXjXjXjXjXmXBXZXZX",
"s.s.t.u.u.t.V.W. X|.|.W.U.).}.|.|. Xp.8 z J a c g o M M ! R M M v l b M b k 3 y k m M b l M G f d Z m k 2 A N g D b e ; ; ; ; ; ; -.-.;.,.=XhXjXjXzXmXBXZXZXZX",
"s.s.t.e.e.e.u.i.V.E.W.U.s.V.~.{.|.g.2 M M M b v / % A  .S F M z M b 2 y m A F M M b 2 3 k M m A h ! f m 2 D m J { c B * -.-.-.-.-.-.-.-.f.7XjXjXbXmXBXZXZXZXNX",
"s.s.y.e.e.e.u.u.u.e.t.t.t.y.V.W. X, c M M b M M Y 2 K ! G G M M 8 2 m F h g g g Z A M k O b m v M Q U M 3 W M f H M B + <.4.3.2.5.5.<.8.=XsXjXjXkXmXBXZXVXMXdX",
"s.m.s.s.i.t.t.e.e.e.t.y.i.s.s.= # 3 k c M m D { 2 A a M Z b J V m h E E E E E E E E g D A r 2 A b g E ! G 7 { M N b k 2 O   ; t.w.u.k.@XsXjXjXjXaXtXsXsXtX>X@X",
"s.m.m.b.b.m.s.y.t.t.y.s.s.s.0.k m M M M M K { w m  .S M n k ! 9 G E E E E E E E ^ ^ W E g Z 8 J z g Q s  .o 7 Q G M M M M c # N.C.U.:XhXjXjXjXhX+X).{.R.n.v.Y.",
"s.m.m.m.m.b.b.m.s.y.y.y.s.t.  A V b M M x X 8 m J 9 v z M h y c ^ ] ../ ^ _ ^ ^ _ ^ / { { W g V ! m z z x M v 2 3 A M c t D ..d.T.1XhXkXkXjXhX9XOX{._.c.x.~.+X",
"s.m.m.a.s.s.m.n.n.m.s.s.s.t.  M m y 8 0 0 b M M f y A S Z R z S ] / [ ' K ^ _ _ ^ f _ ` ~ W g x ! t n k 8 Z m m t f Z 8 t Z } c..XpXkXkXkXhXtX;X+X+X~.c.R.+X;X",
"s.m.s.t.w.t.s.m.n.C.n.b.b.v.i.r M M M y 2 m c M p v W U Q  .n J / R _ _ R D } [ J R _ _ _  .W c V 0 w A b  .M M M 3 M M A Y & ^.uXkXkXkXhXwX;X+X+X+XA.S.+X;X;X",
"s.m.s.w.w.w.w.a.b.I.I.V.n.V.b.= O M M M 3 m N A a v ! 0 ^ C S W ! R _ _ R Z +.#.! H _ _ _ J g 9 V a 6 D z / F b r m M F J   J.gXkXxXkXkXeX.XOX+X+X.XA.{.;X2X2X",
"s.m.s.t.0.0.0.w.s.b.I.I.I.I.V.1 c k v M g 2 M D W h f k R x V ^ ] J J J Z / { U O. .F F F ^ E z n Q M a g T K 2 6 J Q X.*., gXxXxXkXkXwX~.c.^.+X+X!.!.+X2X2X2X",
"s.s.m.y.w.0.0.0.u.s.n.I.I.I.I.: z M m v D o b K f E J m 0 a W j } { J J [ $.{ %.+.$. ./ ] / h g i Q M E E / h $ a { 0  .*.I xXxXkXhXwX).s.t._.+X+XZ.'.;X2X2X2X",
"y.s.d.s.w.0.w.w.w.u.s.b.n.I.I.= l z M M M w y L E E h k Q / p V U / *.*.&...&.*...$.&.+.[ d f ~ R ! M E E W  .% / A Z H %.=.kXkXgXeX).C.u.A.OX#X^.A..X;X#X#X2X",
"w.w.s.s.y.w.w.w.w.w.w.t.s.m.m.. r M D A M T k K h E g M ! / V S $.%.+.*.&.' X. . .$.*.$.R { V ' s Q b E E Q g % { A g K } =.hXuX2XW.I.t.j.{.#X+XZ.A.oX+X_..X2X",
"0.4.t.s.m.s.t.w.w.w.w.w.w.w.u.. 3 F / c G 7 y J Q E Q V ] R ] +.*.O.~ O...{ } } / / $.&.C $.U ^ 6 J n E E Y ! 6 { b c s #.1 8X|.Q.I.s.4.Y.+X#X^.y.c.~.~.U.^.#X",
"4.4.w.a.m.m.m.s.t.u.u.w.w.w.w.: 4 M M M Q X c J R E E f / { ! #.) ' } } ' Y ' ' T | @.*.X.&.O.p w S S E E U Q 2 U A M V ' 1 Q.Q.I.s.3.0.^.+X{.n.u.w.x.n.V.R.+X",
"4.w.w.a.s.m.m.b.m.m.s.y.t.t.e.: 3 z v k o M M D d Q E E P / +.O.*.@.O.Y w Y w ) 7 ) [ *.' Y d ' { n W E E / J c 8 8 m U %.9.Q.I.s.3.:.6.Y.!.c.t.w.7.u.y.x.V._.",
"w.t.s.d.m.m.m.m.n.T.U.U.U.V.V.f.# m v 0 y M z V U f E E z ! %.&.*.O.+.U w 7 7 q q w ] $.Y #.%.@.[ f W E W [ Q c c 6 8 ~ *.9.C.t.2.:.:.:.7.3.0.t.e.0.7.7.w.c.T.",
"y.s.m.m.m.n.n.b.U.{.OXOXOXOX%X;X& M M R n c m S ' s E E V S } #.*.o.#.w %.T #.*.) | [ O.a *.%.O.f / / ^ / @.[ Z m n Z } $.p.t.3.:.:.:.,.2.5.0.i.i.w.7.7.4.s.b.",
"s.m.m.m.V.E.E.U.~.^.!.R.!./.^.'.z.M c M M M G Q W ~ E E / ! ! #.%.' o.&.X.X.p R a } ~ C #.| O.Z R _ _ ( ~ Z l t n Z M +.T d.s.y.3.:.:.3.2.5.u.x.s.u.0.7.7.y.b.",
"m.m.m.m.I.E.).E.c.0.4.4.4.3.3.3.<.b m M M b F c J ^ Q W _ _ x / O.@.H ..#.} o.} #.&.H | ) +./  .] _ _ U / n b Z a D M { q T.I.I.w.,.5.7.2.2.t.c.i.w.0.0.4.u.m.",
"d.s.s.s.y.e.w.0.4.4.4.4.4.4.0.0.0.r M M Z 2 O o 3 D { ( 9 a Y U H } } ~ H Y o.' T p +.#.+.S X./ h Q ^ / g X 2 2 0 M M w : I.n.i.2.:.4.7.2.7.x.v.t.w.0.0.4.w.m.",
"s.s.t.0.2.2.3.3.3.4.4.w.u.t.y.i.i.@ b m m m B D 2 3 / Y n H } | X.H +.$.' q w q q ' O.{ H { } ] Q Q [ Q u p h D R m M & i.m.u.<.:.2.w.4.5.r.v.v.e.w.w.w.0.w.i.",
"j.l.7.<.:.:.,.<.2.2.0.t.i.s.s.s.s.t.@ t c J z y  .| 9 W p k Q { %.$.} ~ K  . . .K X.{ O.+.} { H c T R 7 ' A c J  .x S 0.u.<.;.:.2.w.w.2.2.x.n.c.u.w.0.0.0.w.u.",
"L.,XL.0.,.:.,.,.:.,.4.u.t.t.t.t.u.0.- t c / p 2 A { O f / p 9 0 | $.#.+.#.#.@.#.+.+.+.+.@./ D V s / h T [ M y { K M 8 ;.;.;.:.2.w.u.w.5.7.x.V.c.u.0.0.0.0.w.w.",
"dXFXMXz.3.2.<.:.:.:.:.2.3.3.2.5.:.;.;.# 4 M A G y A ) o S Q ' Y [ +.#.#.+.$.+.+.+.} O.} [ ( Y { W u 2 } F n G M m o - 9.f.q.7.w.u.w.3.:.0.c.V.v.e.0.0.0.7.0.w.",
"fXFXMXJ.e.0.3.,.;.;.;.,.f.z.z.6.:.;.;.* X y l b 2 b | 6 l G ^ [ ' | +.+.+.+.+.+.O.[ [ ] ' | [ g A Z o { Z 8 b c t * <.M.tX[.i.u.w.w.5.:.0.c.n.n.t.w.w.w.w.w.0.",
">XZXvXL.q.3.2.,.;.;.;.f.<XVXnXL.6.;.;.;.; z B M v M ^ X Q h c n h ^ } } ) } O.} Y ' } [ / j x c J E 6 ! { M M b @ w.w.B.,XK.t.w.7.2.:.:.7.c.n.V.s.w.w.0.w.w.0.",
"7XZXFXvXf.;.;.;.;.;.;.L.MXJXJXvXf.;.;.;.:.@ b M m M h w a 6 X X 3 6 h ^ [ ] +.+.} ] Q a 6 X $ 3 2 Q 7 g / M M # 1.u.w.w.w.w.4.3.5.:.:.:.3.x.V.V.b.t.w.0.w.0.0.",
"NXFXFXfXf.;.;.;.;.;.;.L.nXJXJXvXf.:.:.:.,.<.> + M M k 9 Z g h K ..[ Y O c u / [ c x d O.} K K Q Q m 8 M A w + u.w.w.w.w.4.3.,.:.:.:.:.:.,.i.n.V.V.m.t.w.w.w.7.",
"FXFXJX=X8.;.;.;.;.;.;.f.>XvXvXL.8.>.<.<.2.8.h.* M M 3 m D G m y A F } ~ j g h Q S o O. .F M y A G A m k M Y = w.w.w.w.3.5.:.:.:.:.:.:.:.:.0.c.V.V.V.c.t.w.w.w.",
"FXFXJXfXJ.8.;.;.;.;.;.;.q.P.z.9.>.>.,.,.<.z.,X1 M K M M m M m m ^ 9 F Q p W D g 0 3 F y 8 D k m v M M v j S @ w.w.4.2.:.:.:.:.:.:.:.:.:.:.2.i.b.V.V.V.v.i.u.w.",
"AXAXFXFXvX(.z.8.<.,.>.,.>.>.>.;.;.;.;.;.;.z.=X: B J M M 4 m M b ! { G F U { h Q p k A ! } A c M b 8 M M J k = 4.3.q.l.6.:.:.:.:.:.:.:.:.:.:.0.x.b.V.V.V.V.x.u.",
"NXmXjXMXZXVX7X=XJ.H.z.z.z.h.0.6.3.<.<.<.;.;.-.-.. # + * * + b m b m m b M M M M M c m M M c m 8 + ; - 5 # ; ,.:.:.(.lXJ.2.:.:.:.:.:.:.:.:.:.:.0.j.b.V.V.V.n.y.",
"sX9XoX:XfXVXZXAXAXVXMXdX7X,XK.Z.Z.F.Z.k.h.6.:.-.; > ; ;.;.> + o 3 z t v M M M M M M k b m 3 & < P.J.z.9.;.;.:.:.:.[.tXJ.3.:.:.:.:.:.:.:.:.:.:.:.4.y.x.c.n.n.i.",
"oX~..X;XqXhXMXNXZXAXAXAXAXAXVXsXqX:X;X;XoX!.l.q.<.>.;.;.;.:.:.q.7XfX*X< @ # # #   . < &XLXJXJXAXZXZXfX[.z.f.2.:.;.0.l.6.:.:.:.:.:.:.:.:.:.:.:.:.:.5.4.u.y.y.0.",
"E..XqXhXmXmXmXmXmXZXAXAXJXJXAXAXMX3X-X-X;X;X;X'.D.l.q.q.8.6.6.3.=XMXyXl.,.:.:.:.<.z.lXFXJXJXJXJXFXZXZXZXvX7XJ.9.;.:.:.:.:.:.:.:.:.:.:.:.:.:.:.:.:.:.:.:.:.:.,.",
"W.9XjXmXbXbXbXbXjXNXZXFXKXKXJXAXAX5X!.J.^.@X-X;X;X;X+X@X^.`.Z.r.J.dXmXL.f.8.8.f.J.lXFXJXJXJXJXJXFXZXZXZXVXVX7Xf.-.;.;.;.;.:.:.:.:.:.:.:.:.:.:.:.:.:.:.:.:.:.:.",
"~.tXbXbXmXbXbXjXdXNXAXAXJXKXJXFXVX=Xh.0.h.A./..X@X@X@X@X_.~.M.l.=XMXFXMX>X[.=X<XSXJXJXJXJXJXJXAXVXVXZXZXbX7XL.6.-.-.;.;.:.:.:.:.:.:.:.:.:.:.:.:.:.:.:.:.:.:.:.",
"W.3XsXjXjXhXsXtX9XdXZXAXJXKXJXFXvXK.A.Y.Y.Y.A.A.A.F.D.F.v.l.M.=XmXFXFXFXFXJXJXJXJXJXJXJXJXJXJXdXiXhXmXMX=Xf.<.;.-.-.;.;.;.:.:.:.:.:.:.:.:.:.:.:.:.:.:.:.:.:.:.",
").OXwXiXiXaX:X{.W.:XdXVXAXJXJXFXSX=X/.!.!.!.!.`.Y.(.=X=X[.,XlXVXFXFXFXFXFXFXFXFXCXCXCXCXCXCXSX5X:XwXuXuXK.0.<.:.;.-.-.;.;.;.;.;.:.:.:.:.:.:.:.:.:.:.:.:.:.:.:.",
"#X2X8X1X8X1X$X).E.E.:XdXZXAXJXJXAXvX,X/.F.M.M.Z.J.7XVXFXFXFXAXAXAXAXAXAXAXZXZXAXCXCXCXCXCXCXSX6X8XwXuXuX6XH.6.<.,.;.;.;.;.;.;.;.;.;.;.:.:.:.:.:.:.:.:.:.:.:.:.",
"1X1X1X1X1X1X2X).E.E.#X9XmXZXFXJXAXAXVX7X(.J.J.4X7XVXFXFXJXFXFXAXDXJXCXAXAXAXAXCXCXCXCXCXCXCXCXqX9XwXuXuXuX:XZ.0.2.,.;.;.;.;.;.;.;.;.;.;.:.:.:.:.:.:.:.:.:.:.:.",
"1X1X1X1X1X1X#X).E.E.#X8XuXMXAXFXJXAXAXAXAXFXJXFXFXFXFXFXAXAXFXCXDXDXCXDXCXCXCXCXCXCXCXCXCXCXCXsX0XwXuXuXiXiX9XK.l.0.2.,.;.;.;.;.;.;.;.;.;.:.:.:.:.:.:.:.:.:.:.",
"%X%X2X2X2X%X XE.E.E.#XwX0XpXMXZXAXAXAXAXAXAXAXAXAXFXFXFXDXDXDXDXDXCXCXCXCXCXCXSXSXCXCXCXCXCXCXSXiXwXwXiXdXcXhXgX:XK.k.q.3.<.,.,.,.,.:.:.:.;.;.:.:.:.:.:.:.:.:.",
"W.). X{.{.).E.E.E.E.XXqXiX0XuXhXMXNXVXAXAXAXAXAXAXCXCXCXCXCXCXCXCXCXAXSXMXmXdXdXdXdXmXnXSXCXCXCXSXsXiXdXVXSXMXmXzXpX9X'.k.6.<.,.,.,.,.,.,.:.:.:.:.:.:.:.:.:.:.",
"E.E.E.E.E.E.E.E.E.E.).9XyXiXwX0XwXpXjXmXmXMXMXMXMXMXMXSXSXVXSXCXCXSXdXiXwX0X0XeXeX9X0XwXiXbXSXHXCXCXCXCXSXSXmXhXiXhXhXuX:XZ.3.,.:.:.:.:.:.:.:.:.:.:.:.:.:.:.:.",
"E.E.E.E.E.E.E.E.E.E.E.#XaXiXyXiXrXeX9X0X0XqXaXaXtXtXtXiXiXiXsXdXdXiX0XrXuXiXiXiXuXuXuXuXeX0XiXbXSXHXSXHXVXMXhXpXuXwXhXhXuX:Xk.<.:.:.:.:.:.:.:.:.:.:.:.:.:.:.:.",
"E.E.E.E.E.E.E.E.E.E.E. X9XiXiXiXiXiXiXiXiXuXuXwXwXwXwXwXwXwXeX0X0XrXiXiXiXiXiXuXuXuXuXuXuXuX0X0XtXsXsXsXsXpXgXgXgXuXzXMXgXrX#Xl.<.;.:.;.:.:.:.:.:.,.,.,.,.,.,.",
"E.E.E.E.E.E.E.E.E.E.E.E.XXqXiXiXiXiXiXiXiXiXiXiXiXiXiXiXpXpXpXpXpXpXiXiXiXiXuX0X8X1X8X0XwXuXgXwX2XOXOXOX#X8XuXgXgXgXzXMXzXuXrX#Xl.<.;.:.:.:.:.:.:.:.,.,.,.<.,.",
"E.E.E.E.E.E.E.E.E.E.E.E.W.#XwXiXiXiXiXiXiXiXiXiXiXiXiXiXiXiXiXpXpXpXpXiXiXpXaX9X;XOX X{.#X8XwXuXrX2XOX|.|.OX8XhXmXmXxXmXmXgXrXrX:Xl.,.:.:.:.:.:.:.:.,.<.<.<.<.",
"U.E.E.E.E.E.E.E.E.E.E.E.E.W.#XqXyXiXiXyXyXiXiXuX0X0X0X0XqXuXiXiXpXpXpXpXpXpXpXpXpXwX;X{.). X#XeXuXrX2XOX|.|.OXhXGXGXxXmXmXzXuXrXwXoXf.:.;.:.:.:.:.:.:.:.<.<.<.",
"x.V.T.U.E.E.E.E.E.E.E.E.E.E.W.XX9XaXyXyXyXyXyXqX;XXXoXoX+X9XiXiXiXpXpXpXpXiXiXiXiXpXiX8X{.).).OX0XuX0X#XOX|.OXhXGXGXBXmXmXmXhXuXrXrX'.q.,.;.;.:.:.:.:.:.5.2.2."
};
