/* XPM */
static char *_f8e672e3f20438eb24cf8de13d949c6[] = {
/* columns rows colors chars-per-pixel */
"79 79 240 2 ",
"   c #1A182E",
".  c #231B28",
"X  c #221F34",
"o  c #2B222C",
"O  c #34262B",
"+  c #392A2F",
"@  c #292635",
"#  c #3C2D33",
"$  c #332932",
"%  c #2F383E",
"&  c #3A333B",
"*  c #433135",
"=  c #4A3539",
"-  c #493739",
";  c #52393A",
":  c #583E3B",
">  c #543733",
",  c #402C2C",
"<  c #603F36",
"1  c #5D403D",
"2  c #66443C",
"3  c #75493D",
"4  c #3A3745",
"5  c #2E3E45",
"6  c #293F68",
"7  c #473C45",
"8  c #553E43",
"9  c #5D3E42",
"0  c #384C4F",
"q  c #324C74",
"w  c #4A4548",
"e  c #5F4449",
"r  c #5A4445",
"t  c #4C4952",
"y  c #524D53",
"u  c #5C5B5C",
"i  c #585354",
"p  c #43585C",
"a  c #644343",
"s  c #6D4D46",
"d  c #6B4C4A",
"f  c #674947",
"g  c #724B44",
"h  c #784E48",
"j  c #7C524A",
"k  c #765244",
"l  c #745A50",
"z  c #7C5C52",
"x  c #735351",
"c  c #675754",
"v  c #48665E",
"b  c #7B675D",
"n  c #4B5770",
"m  c #526570",
"M  c #646363",
"N  c #6B6B6A",
"B  c #6C6760",
"V  c #72726F",
"C  c #777672",
"Z  c #7B7A75",
"A  c #7D7E79",
"S  c #76747B",
"D  c #6F6B6F",
"F  c #675F66",
"G  c #855647",
"H  c #83544D",
"J  c #8B5B4D",
"K  c #855847",
"L  c #935B4A",
"P  c #895E51",
"I  c #805C56",
"U  c #844F41",
"Y  c #836254",
"T  c #8B6859",
"R  c #916254",
"E  c #9D6B55",
"W  c #996756",
"Q  c #95634D",
"!  c #A36C57",
"~  c #AB735A",
"^  c #A87257",
"/  c #B37B5C",
"(  c #A7614B",
")  c #8A7264",
"_  c #9B7561",
"`  c #9D716A",
"'  c #8B7874",
"]  c #A87964",
"[  c #B17C63",
"{  c #5B835F",
"}  c #608267",
"|  c #BB805E",
" . c #83827C",
".. c #B78666",
"X. c #B58E73",
"o. c #B69077",
"O. c #C1845F",
"+. c #CA946E",
"@. c #DAA378",
"#. c #E4AC7F",
"$. c #234B86",
"%. c #244D8A",
"&. c #244B85",
"*. c #27508C",
"=. c #29528C",
"-. c #2F5182",
";. c #355787",
":. c #2A5593",
">. c #2D5A96",
",. c #2E5D9A",
"<. c #275291",
"1. c #315E9B",
"2. c #345C95",
"3. c #33629D",
"4. c #3B659A",
"5. c #3364A2",
"6. c #3768A4",
"7. c #3A6AA4",
"8. c #3A6DAB",
"9. c #3769A8",
"0. c #3E71AD",
"q. c #3E70A6",
"w. c #3E73B3",
"e. c #3B6FB1",
"r. c #425E85",
"t. c #456A9B",
"y. c #516E91",
"u. c #426EA5",
"i. c #4274AC",
"p. c #4876A9",
"a. c #557CAA",
"s. c #4176B2",
"d. c #457AB5",
"f. c #4A7DB5",
"g. c #437BB9",
"h. c #487EB9",
"j. c #527EB4",
"k. c #637894",
"l. c #4C82BB",
"z. c #4D82B5",
"x. c #5385B4",
"c. c #5285BC",
"v. c #558BBB",
"b. c #598CBA",
"n. c #5B8BB6",
"m. c #668BB6",
"M. c #6894BD",
"N. c #779ABC",
"B. c #698DAE",
"V. c #7F919E",
"C. c #5B8DC3",
"Z. c #538AC2",
"A. c #5E92C5",
"S. c #5994CC",
"D. c #5995CC",
"F. c #4D87C2",
"G. c #6393C4",
"H. c #6499CB",
"J. c #6A9BCD",
"K. c #6799C6",
"L. c #749DC5",
"P. c #649DD1",
"I. c #628FC3",
"U. c #6DA2CC",
"Y. c #6CA1C5",
"T. c #76A5CA",
"R. c #6BA6D6",
"E. c #74A5D4",
"W. c #79AAD5",
"Q. c #72ACDA",
"!. c #78ACD9",
"~. c #7CB3DC",
"^. c #79B2DA",
"/. c #7DB5E0",
"(. c #898680",
"). c #8B8A84",
"_. c #9A9B95",
"`. c #8E9391",
"'. c #BF9E81",
"]. c #A4A097",
"[. c #94A5B0",
"{. c #A6A7A2",
"}. c #B1B7B1",
"|. c #8D9BA1",
" X c #C0BBAE",
".X c #CFA789",
"XX c #D6CDBB",
"oX c #86A9C9",
"OX c #97B4CB",
"+X c #83B4DD",
"@X c #89B8DA",
"#X c #97BAD5",
"$X c #89AFCF",
"%X c #8ABEE4",
"&X c #83B8E1",
"*X c #96BFE2",
"=X c #99B6D1",
"-X c #9CC4DE",
";X c #8FC0DE",
":X c #A9C7DC",
">X c #B9D0DA",
",X c #8CC2E4",
"<X c #94C5E4",
"1X c #9CCBE5",
"2X c #9BCCE9",
"3X c #97C9E7",
"4X c #9CD1EC",
"5X c #A5CDE7",
"6X c #A4D4EB",
"7X c #AAD5EA",
"8X c #ABD8EB",
"9X c #AAD4E6",
"0X c #BCDCEE",
"qX c #B5D6EA",
"wX c #ABD9F0",
"eX c #BDDEF3",
"rX c #B4DCF2",
"tX c #B3CEE3",
"yX c #BDE1F3",
"uX c #B7E1F2",
"iX c #BEE0EF",
"pX c #F2F0DC",
"aX c #C4DDEC",
"sX c #C1DFF2",
"dX c #C9E2EE",
"fX c #C3E2F3",
"gX c #CAE5F3",
"hX c #CDE9F5",
"jX c #CAE9F8",
"kX c #D3EBF5",
"lX c #DCEDF4",
"zX c #D4ECF9",
"xX c #DBEEF9",
"cX c #D1E7F1",
"vX c #DDF1FA",
"bX c #DCF0F7",
"nX c #D4E7EF",
"mX c #E2F4FB",
"MX c #EAF6FB",
"NX c #CFD2C9",
/* pixels */
"p.f.i.4.7.p.z.x.x.v.x.z.d.i.0.0.d.H.~.~.U.@XqXW.b.v.Z.Z.v.F.F.c.c.l.Z.A.H.J.U.H.c.p.i.7.7.7.7.7.7.6.3.3.3.6.6.7.8.0.0.d.l.c.h.s.p.L.W.G.j.s.8.6.>.=.*.=.2.4.7.",
"6.3.1.1.1.3.4.u.f.x.x.v.x.f.s.0.0.s.v.R.^.5XaX$XK.A.C.v.v.v.v.c.c.c.l.l.Z.A.H.J.J.J.A.C.c.c.c.f.f.p.p.i.7.7.6.6.3.5.6.9.0.i.w.w.0.0.c.E.T.I.c.j.f.7.1.=.*.*.:.",
"3.1.1.3.1.3.3.3.3.q.f.x.v.v.z.d.s.s.s.f.A.W.W.U.U.U.K.A.b.v.v.v.c.c.l.l.c.l.Z.A.H.H.J.J.J.J.J.J.J.J.H.A.C.c.d.s.i.u.7.7.8.8.0.0.0.0.0.0.h.C.J.J.G.C.d.u.6.3.>.",
"3.1.3.3.3.3.3.6.6.6.7.i.z.v.v.v.x.z.h.l.K.@XT.J.@X-XW.U.K.G.A.b.v.c.l.l.c.F.Z.l.l.Z.C.G.H.H.J.J.J.J.H.H.G.A.A.A.A.C.v.f.i.i.8.0.0.0.0.w.w.w.w.d.l.C.Z.d.8.7.6.",
"3.3.3.6.6.6.6.6.6.6.6.7.i.x.v.b.v.l.l.l.-XcX#XK.qXcX@XU.U.U.U.U.T.L.L.K.G.c.l.l.l.l.h.h.l.c.C.C.A.C.Z.c.h.d.h.l.c.v.C.C.C.l.p.0.8.8.0.w.w.w.w.w.8.7.7.6.3.>.=.",
"3.3.6.6.6.6.6.6.6.6.6.7.7.p.x.b.b.v.l.x.T.:XY.x.T.#XW.U.U.T.@X9X0XgXhXgXtXT.z.f.h.l.l.l.h.d.d.s.s.i.0.8.8.8.9.9.9.8.s.d.h.l.l.d.8.7.8.8.8.w.w.8.6.>.:.*.%.$.$.",
"i.6.6.6.6.6.6.6.6.6.6.7.7.7.f.v.b.b.v.c.z.d.d.d.d.v.J.U.U.@XgXvXvXvXvXvXvXgXm.0.i.i.d.d.s.s.d.d.d.g.f.g.g.g.g.w.8.9.9.8.w.s.s.s.s.w.9.6.9.8.w.w.w.0.9.6.3.,.>.",
"q.6.6.6.6.6.6.6.6.6.6.6.7.7.q.z.b.K.U.U.G.v.z.z.d.l.K.U.U.qXxXvXvXmXvXvXkXqXm.i.q.q.q.i.q.q.i.s.s.d.d.g.g.g.g.g.g.g.8.6.6.8.w.w.w.w.w.w.8.8.8.w.w.w.w.w.w.w.w.",
"7.6.6.6.6.6.6.6.6.6.6.6.6.6.7.i.L.-X8XqX-XY.v.x.x.x.K.U.U.qXbXvXmXmXvXxX:XM.p.q.i.i.h.c.c.c.f.f.d.h.h.d.d.g.g.g.g.g.g.g.9.3.6.9.e.w.w.w.w.w.w.w.w.w.w.w.w.w.w.",
"6.3.3.3.3.3.3.1.,.3.3.3.3.6.7.x.-X0XfXfXyX$XM.b.b.b.G.K.U.qXxXvXmXmXmXdXM.f.d.p.p.c.J.E.W.W.W.E.U.K.G.v.l.h.g.g.g.g.g.g.g.0.,.>.5.9.9.8.e.w.w.w.w.w.w.w.w.w.w.",
"3.3.,.>.,.>.,.,.,.,.,.,.3.7.x.#XiXgXhXhXhX9XT.b.b.b.b.K.$X0XbXmXmXmXmXqXL.v.v.c.c.H.E.E.E.E.E.W.W.W.W.W.E.H.c.h.d.g.g.g.g.g.0.>.%.%.:.>.,.5.6.8.e.e.e.e.8.8.9.",
"3.,.3.3.,.>.,.,.,.,.3.u.j.M.-XyXfXhXhXhXhXhX-XT.K.K.T.@X0XhXvXmXmXmXmXkX$XK.K.G.G.A.H.J.E.E.E.E.E.W.W.W.W.E.E.H.c.d.s.w.g.g.g.0.,.%.%.%.$.&.%.:.,.5.5.1.>.:.<.",
"7.p.n.b.f.7.3.6.u.j.M.$X9X0XfXgXhXhXhXhXhXhXgXqX:X:XqXfXhXkXvXmXmXmXmXmXgXqX5X5X#XW.G.b.A.K.J.U.U.E.E.E.E.E.E.E.E.C.d.8.8.w.w.w.8.>.*.%.$.$.&.%.$.$.=.t.4.=.$.",
"T.,X2X5X@XL.M.L.$XqXhXhXfXyXfXgXhXkXkXkXhXhXhXhXhXhXgXgXhXkXvXmXmXmXmXmXmXmXvXvXzXfX@Xb.v.v.v.b.b.b.C.G.G.H.K.K.K.H.A.f.8.5.5.6.9.5.,.:.*.%.%.%.$.$.4.OX$X4.$.",
"3X2X6X6X6X6XrXhXzXzXkXgXfX0XyXhXkXkXkXkX0XfXgXhXhXhXhXgXgXkXvXmXmXmXmXmXmXmXmXmXmXmXgXM.f.z.x.v.x.7.>.>.3.4.u.u.u.u.u.p.p.5.>.,.,.,.,.,.>.:.<.%.%.$.4.oXOX4.$.",
"3X2X5X6X2X7XhXzXzXkXgXyX0X0XrXgXkXkXkXkX1X5XeXfXgXgXgXgXgXhXxXvXmXmXmXmXmXmXvXvXvXvXcXx.=.3.u.f.x.z.7.<.%.$.$.$.$.$.$.&.=.>.=.%.*.<.:.:.>.>.>.:.<.*.%.=.%.$.$.",
"3X3X2X3X@X0XkXzXhXfX0X0XrX6X<X0XkXkXkXkX7X&X<XrXyXfXfXfXfXfXhXbXvXmXmXmXmXmXbXxXaXqXOXt.&.$.&.2.u.f.f.7.:.%.$.%.%.%.%.%.%.%.$.$.$.$.$.$.$.%.<.<.:.:.:.<.*.%.$.",
"3X3X3X@X+XsXxXfXrX0X0X0X6X%X+X7XhXkXkXkX0X+XD.+X2X7X8XqXfXfXfXhXgXkXvXvXmXvXxXkX[.a.2.&.$.$.$.$.*.3.i.s.7.>.>.>.>.>.>.>.:.<.%.%.$.$.$.$.$.$.$.%.%.%.<.:.>.:.<.",
"3X3X3X~.@XsXkX1X3X8XrXrX,X%X<X1XiXkXkXkXgX+XS.R.^.^.^.%XqXfXfXfX5X9X0X0XkXxXxXgXa.&.$.$.&.&.&.&.&.%.:.3.7.8.8.8.w.w.w.w.8.9.3.:.*.%.$.$.$.%.2.u.4.4.t.2.:.:.:.",
"3X3X3X~.~.0XfX@XQ.%X1X$XT.OXoX[.' ) ) ) B N.x.M.Y.T.Q.^.@X:X:X:XOXY.K.L.#X>X>X>Xk.q q q -.-.-.r.;.;.q q ;.;.y.y.m c ) ) ) u y.t.;.-.q $.%.u.oX:X$X$X#XoXm.a.a.",
",X<X3X~.Q.3X<X!.Q.R.Q.}.}.}.}._.X.#.@.+._ ]._.{.{.{.|.|.|.}.}.}.}.}.}.}.}.}.}.}.}.{.{.{.{.{.{.{.]._._._._.`.Z ' Z b @.+.+.f  ._.{.{.}.k.4.#XhXxXkXzXvXmXkXaXgX",
"E.%X3X+XQ.Q.Q.Q.Q.#XpX X].`.`.).M _ @.X.+.u  .(. . .C ]._.).).). . .(.(.(.).).).).).).).).).).).).(.(.).(.(.(.Z M l o.[ K w V ).).).). XNXgXvXzXfXjXxXvXmXmXmX",
"U.%X<X~.Q.Q.Q.Q.Q.NXpXXX].).(. .C l @.#.@.y C  . . . ._.).(.(. .V Z  . . . . . . . . .A A Z Z Z Z  . .(.(.(.(. .V l @...Y w N  . . . .].XXkXzXfXyXfXjXxXvXvXvX",
"J.+X+XQ.Q.Q.Q.Q.Q.tXpX_.).(. . .Z i +.#..Xw M  . . . .). . . . . . . . . . . . . .}  . . . .A Z C N N N N N C Z N l @...] w M Z A Z A ).XXaXjXyXeXeXfXgXjXzXjX",
"A.H.Z.S.R.Q.Q.Q.Q.>XpX`.).(. . .A i ..#.@.w u Z A A A  .A A Z C Z A Z N B B B u B B B M N Z Z A A A Z Z C N M u i l @.@.] w M A A A A  . XOXeXeXeXeXeXeXeXeXsX",
"l.g.s.w.Z.R.Q.Q.Q.{.pXZ Z Z Z Z C i ] @.@.w i V Z Z Z Z Z Z N N C N B '.o.+.+.W '.o.o.X.) N Z Z Z Z Z Z A A  .Z u z @.@.^ - u N N N N N ].[.qXeXeXeXeXeXfXfXgX",
"g.s.w.9.8.Z.R.Q.Q.V.XXC C V N B u w ^ +.@.w y M C C C C V V V M ) .X+.~ _ J Q ..Q _ _ ~ | ..l u V V V N V V N N i Y @.@.W - i N N N N N C [.qXeXeXeXeXfXjXzXzX",
"w.w.8.6.6.9.l.D.R.V.}.M u M N V N w E +.+.- t u N N N N N N M b .X+.| ] '.k K ..K ] _ K | ....f u N N N N N N N i Y @.@.R & i N N N N N N OXrXeXeXyXfXjXzXzXzX",
"w.w.9.6.6.6.6.0.l.k.{.u N N N N M w E ..+.- t i N N N N N N c '.+.| O.k k 2 2 < 2 > < k | | ..] r u N N N N M M y Y @.@.J & t M M M M M u OXeXeXeXfXjXzXzXzXhX",
"w.w.8.9.6.6.6.6.6.m {.N M M M M M w W ..+.* 4 t M M N N N M X.+.| O.O.J : Y X.'.X.T 2 E | / | ..W - u u u u u u w R +.+.K & w M M M M i y #XeXeXeXfXjXzXzXgX0X",
"w.g.w.w.8.8.9.6.6.m {.M M M M u y w E / +.= & & w w i u M i +./ O.O.O.Y .X@.] T _ o.X.z R / / / / k i i i i i i w R +.+.k & w y u u i i B eXeXeX5X5XqXqX5X#XE.",
"w.g.g.g.g.g.w.8.9.y.].u u u u t ] L E ~ ..W E s w u u u t ) / / | / k +.k .Xo.R X.X.8 z W E ~ ~ ~ ~ - y i w y _ ] ] / O.Q 3 2 & i y B ).' yXeXrX!.P.R.A.h.f.C.",
"w.g.g.g.g.g.g.g.w.n M w w w w w k l K ^ / k k 2 # w t t r X./ / ^ G Y J _ X.s _ d T l r P k ^ ~ ~ ! ; w T T d ] K P s R K 3 k * w 4 B b D eXrX<XQ.R.P.d.s.H.^.",
"w.g.g.8.w.w.g.g.h.n Y Y z z 2 f b o.d J E z s > s T T k T ..~ ! j j T s ] z ) X.) f x 7 x ; s J ! ! s - j ] P s _ ] j _ Y 2 > 1 z l z z S rX2X+X^.!.H.d.A.!.+X",
"w.g.w.9.5.9.w.g.h.k.[ [ [ [ ~ K : 1 = k K > < = W / ~ j ..~ ^ G T P Y 2 E d T _ x r s - r a 8 g E W k : R E W 2 s : ; k 1 2 , j ^ ~ ] ' OX2X+X^.^.!.c.b.!.+X+X",
"w.g.w.5.5.5.5.8.g.p.` ^ ^ ^ ^ ! * : > k G = = 2 ~ ~ ! K ..! Q k W W a 2 j j r T - d : - 7 f ; j J J g k [ ~ ~ j ; ; 2 G > + > W ! ! R ).<XE.Q.^.~.E.c.E.+X&X&X",
"w.w.w.9.5.5.5.5.w.g.D W W W W J H h 2 2 j J ^ ^ ^ ^ ^ ^ ^ ~ ~ ] [ ! R = + d Y Y T z + O # R J L L L J G k J J J L j s j P P P P R R w v m i.J.B.N.v G.^.&X&X&X",
"w.w.w.9.5.5.5.5.6.w.y.H H j g a f s H H f j H J J J J J G G h h g g g ; # f T Y Y z O # = g k j j G G G G G G G G G K j j j j j H j w v v 8.B.v S n U.&X&X&X&X",
"8.e.w.w.9.5.5.5.5.5.w.0 o o . o . @ @ . . o @ o o o o o o o O O O O O O o f Y Y Y l o o o o o o o . . o . . . . . . . . . O O O o @ 0 0 p k.} { } p.E.+X~.~.&X",
"5.5.w.w.e.9.5.5.5.5.5.;.@ $ $ .             . X . X @ @ @ @ # * + O o o o r z l l d o . . o # # * O @ @ @ @ @ X X X X   o # * * @ 5 0 0 0 { { { p c.E.^.J.E.&X",
"5.5.9.w.w.w.9.5.5.5.5.5.n j j s @ 4 4 4 4 @ 7 4 @ 7 9 9 9 9 W E E 1 $ # w w * & * & # $ # 8 ] ~ ~ * a a a 1 r ; 8 8 - f R H h $ % 0 0 0 0 5 % n 7.d.H.H.Z.J.~.",
",.1.5.8.w.g.g.w.9.6.6.5.;.z R R $ w t t y & 4 4 & g H j j 3 J J J ; $ * _ [ ] ] ] ] R $ # 8 ~ ! E , J L L U s a f f 7 ^ ^ ^ a @ 4 % % 5 0 0 0 n 3.5.s.h.l.A.!.",
"3.5.5.e.w.g.g.g.g.s.w.8.6.i R R = 4 t y y 4 @ 7 & a j 1 T E E W T z j 8 E ! E R h R j * d x T R R j > 3 3 < R g s s & / / E # @ @ & % % % 0 0 q 5.1.6.8.s.l.J.",
"5.9.w.w.g.g.g.g.h.F.Z.Z.F.m R R a & w y y w 4 7 & j ! g s ! ~ ~ ~ ~ ] 1 j j j a : g : # x E E E ! ! > U U 2 R g g a 7 / ..s @ @ & % 0 0 0 0 0 0 4.3.1.1.5.d.F.",
"8.w.g.g.g.h.h.g.Z.R.Q.Q.Q.B.Y W x # 7 t y w u y & 3 L L = g R P R R R Y T T T T Y l f = d P P z H k ; U U 2 J h h = Y / ^ # @ & = = $ 0 v % 0 0 q 6.1.1.,.w.g.",
"w.g.g.g.F.S.S.Z.H.J.G.A.G.K.m l s * @ 7 t w i i & < U 3 3 # s R R R s W d f k R j j H = # j j a + . f ( ( 3 J h 1 f +.~ ; + : s g H g @ @ 0 q q 0 6.3.1.,.8.g.",
"g.g.g.g.F.S.P.S.d.3.>.>.>.>.r.z ! Q * 4 w w i i & 2 ( ( ( 3 # 1 P R P R f 8 s z 1 : j * = f = + = O f U U 2 H g = _ | J O ; k g g 8 0 ;.q p 7.i.4.5.3.3.,.6.g.",
"w.w.w.w.8.6.5.,.,.,.,.,.,.1.r.l ! ! g & 7 w i i & 2 ( ( ( U 8 # ; K P 2 3 f z : : f : # 9 + # a 9 O g L L 2 H g = ..~ f # : j h 4 q >.1.*.0 u.f.9.5.5.5.,.5.s.",
"w.w.9.1.:.:.>.>.>.,.,.5.6.9.y.l E E J # 4 7 y i & > 3 3 3 2 j 9 + = j 1 * # s x ; + # ; ; # f j a O 3 L L 2 j 1 f ..^ ; = 8 2 a -.:.5.,.=.5 i.f.6.5.5.5.5.5.0.",
"i.i.1.=.%.%.*.=.:.:.3.8.0.8.y.= R R P = & 7 w i & 2 J J J G P j r O = a ; * = k + # = * $ ; j j a O g L L 2 j ; Y / ^ * = ; = + q 5.5.:.:.q f.d.6.5.5.5.5.5.6.",
"N.OXN.3.*.%.%.%.%.*.,.6.4.N Y z J R W j # - 4 w & = : > > = H P 2 ; O @ @ X X . X X X X @ ; d l f O < 3 3 2 g : ] ^ ! : J R f * q 6.5.<.1.s.l.d.6.5.5.5.5.5.5.",
"0XvXdXa.>.:.*.%.%.%.%.:.r.) j j J R W P ; E f l Y z 2 P ..[ H ! > 1 * a e e 8 7 7 - - - r = b ) > , l ; ; : 1 f / W K 2 W L R a q 5.>.%.3.d.l.f.6.5.5.5.3.5.5.",
"qXvXgXm.6.3.>.*.%.&.&.*.y.c 1 g H j J P P ~ ] / / / / / / ^ > > > 1 * r f x x x d d d d d ; = = > * ] z T ] _ _ ! J G 2 L L G > n 5.<.%.3.d.h.h.9.5.5.5.5.5.5.",
"#XzXaXN.4.>.:.*.&.&.&.t.OXV : 2 H < h J R W W W W W Q Q J J f 1 a : # d : : d x e * = e e : 2 a 1 * P P R W W W Q L L > j j : = q :.%.%.1.d.h.l.w.5.5.3.5.5.5.",
":XzXvXaXy.&.&.&.&.$.$.N.dX' : 2 P 2 2 g P f 2 : : ; ; = = * O + O O + f * ; a d d * * e e O O # O O 1 2 2 2 g j L L J , a a * ; *.%.%.%.>.s.l.l.f.9.5.3.5.5.5.",
"hXvXvXqXt.&.&.&.&.$.$.N.dX{.z : g s j = + H H H j h ; a H J J G H g # d x d 8 c = = = 8 8 ; 9 9 9 a j f h J J H g , * d 1 = : 4 %.%.%.%.*.q.h.l.l.g.9.5.3.3.3.",
"vXvXmXoX2.$.&.&.&.&.&.t.#X}.T f 2 f > O f j j j j g f ; f H H j h f # d d d = * * + * 7 8 ; 9 9 9 e g k J H H H H h * f 9 * e q %.%.%.%.%.3.d.l.l.l.d.8.5.5.5.",
"vXvXmXtXB.2.&.&.&.&.&.&.4.k.I H O O # a j H H H j a a f = a e y n q p e d d e d # * = = 8 `.D t e e d E j g j H H H h # # ; 8 q %.%.%.%.%.:.0.g.l.l.l.f.0.6.5.",
"xXxXvXvXaXL.p.2.=.*.*.*.*.-.F R s f j H J H H H h : a f 8 4 q $.:.3.6.e e e e d = - - 7 ).:Xt.*.;.m ] H h d d j H H H a a f y &.%.%.%.%.%.%.3.s.g.l.l.l.l.s.6.",
"hXfXeXgXkXkX:XoXm.n.a.a.p.u.F W H H H H H H j j j f f 8 q &.%.=.p.M.N.y.y e e r * * t [.kXgXM.t.>.=.` h g f g j H H j h g f 0 %.%.%.%.%.%.%.%.3.i.g.l.l.l.h.8.",
"qX<XW.@XqXkXzXxXxXkXgXqXtX$XB.m p n t w 4 # # # # 4 6 $.$.$.$.3.:XhXzX:Xu.=.q 4 q &.m.aXmXvXaX$XM.m.t.n 4 4 # * * * & t 4 q $.$.%.%.%.%.%.%.%.%.,.8.s.d.h.h.0.",
"W.H.E.+X1XrXgXhXzXxXxXxXxXxXkXqX<X@X$XoXN.a.y.r.q q $.$.$.$.$.4.5XzXgXOX4.%.%.q %.=.N.gXmXMXmXvXzXzXqXN.y.r.& & t q n ;.$.$.$.$.%.%.%.%.%.%.%.%.%.<.,.6.8.8.3.",
"D.E.1XeXsXfXfXfXfXzXxXxXmXmXxXxXgX*X+X+X+X+X+XL.n.p.4.4.2.>.2.>.oXgXtXp.*.%.%.%.=.a.tXvXMXMXMXMXvXzXzXzXsX:Xm.=.$.$.$.$.$.$.$.$.%.%.%.%.%.%.%.%.%.%.%.%.%.%.*.",
"S.<XeXfXfXfXsXsXeXhXxXvXMXMXmXxXxX:XG.m.J.E.+X+X+X+X+XT.J.I.x.7.m.0XgXN.t.2.2.t.m.tXbXmXMXMXMXMXmXxXzXzXzXkX:Xt.$.$.$.$.%.$.$.$.%.%.%.%.%.%.%.%.%.%.%.%.%.%.%.",
"H.5XsXsXfXsXsXeX0XhXxXxXMXMXmXvXkXoXu.3.u.x.K.E.E.E.E.E.L.H.j.p.$XgXbXgX#XT.oX#XcXmXMXMXMXMXMXxXkXkXzXzXaX:XN.2.$.$.$.$.$.$.%.%.%.%.%.%.%.%.%.%.%.%.%.%.%.%.%.",
"S.*XrXeXeXrXqX5X<X0XzXxXmXMXmXvXaXM.x.C.C.C.c.x.c.c.n.x.f.p.j.oXfXvXvXvXvXmXmXmXmXmXmXmXmXmXmX0X7XeXfXfXoXt.=.$.$.$.$.$.$.$.%.%.$.$.%.%.%.%.%.%.%.%.%.%.%.%.%.",
"P.!.3X7X7X5X@XR.D.@X0XzXxXmXMXvXcXoXG.G.G.G.G.A.C.L.oXoXT.$XtXkXvXvXvXvXvXvXvXvXlXlXlXlXlXlXcX;X%X2X6X6XM.3.=.%.$.$.$.$.$.$.$.$.$.$.%.%.%.%.%.%.%.%.%.%.%.%.%.",
"~.&X%X,X,X%X^.P.S.S.@XeXzXxXMXmXxXaX$XK.b.j.j.x.m.:XkXvXvXvXxXxXxXxXxXxXxXzXkXxXlXlXlXlXlXlXcX;X,X2X6X6X;Xx.2.=.*.$.$.$.$.$.$.$.$.$.$.$.%.%.%.%.%.%.%.%.%.%.%.",
"%X%X%X%X%X%X&XP.S.S.^.3XfXzXvXmXxXxXkX:XL.m.m.oXtXkXvXvXvXvXvXxXbXmXlXlXxXxXxXlXlXlXlXlXlXlXlX1X<X2X6X6X6X@Xx.3.:.*.%.$.$.$.$.$.$.$.$.$.$.$.%.%.%.%.%.%.%.%.%.",
"%X%X%X%X%X%X~.P.S.S.~.,X6XgXxXvXmXxXxXxXxXvXmXvXvXvXvXvXxXxXvXvXbXbXlXlXlXlXlXlXlXlXlXlXlXlXlXqX3X2X6X6X9X7X<XM.p.3.:.*.%.$.$.$.$.$.$.$.$.$.$.%.%.%.%.%.%.%.%.",
"/././.&X&X/.R.S.S.S.~.1X<X8XgXkXxXxXxXxXxXxXxXxXxXvXbXbXbXbXbXbXbXlXlXlXlXlXlXcXcXlXlXlXlXlXlXcX7X2X2X7X0XiXeXwX@XM.p.4.:.=.*.*.*.*.%.%.%.$.$.%.%.%.%.%.%.%.%.",
"D.P.R.R.R.P.S.S.S.S.E.1X9X<X6XeXgXhXkXxXxXxXxXxXxXlXlXlXlXlXlXlXlXlXxXcXgXfXiX0X0X0XfXdXcXlXlXlXcXrX7X0XkXnXgXfXuX8X<XU.p.>.=.*.*.*.*.*.*.%.%.%.%.%.%.%.%.%.%.",
"S.S.S.S.S.S.S.S.S.S.P.<X9X7X2X3X2X8XeXfXfXgXgXgXgXgXgXcXcXkXcXlXlXcX0X7X2X<X<X3X3X<X3X2X7XsXcXnXlXlXlXcXcXcXfXrX7XrXrX6X@Xx.>.*.%.%.%.%.%.%.%.%.%.%.%.%.%.%.%.",
"S.S.S.S.S.S.S.S.S.S.S.~.5X7X7X7X4X3X<X3X3X1X5X5X5X5X5X7X7X7XqX0X0X7X3X4X6X9X9X9X6X6X6X6X3X<X7XsXcXnXcXnXkXgXrX8X6X2XeXrX6X@Xp.=.$.$.$.$.%.%.%.%.%.%.%.%.%.%.%.",
"S.S.S.S.S.S.S.S.S.S.S.R.<X9X7X7X9X9X9X9X9X6X6X2X2X2X2X2X2X2X3X3X3X4X9X9X9X9X9X6X6X6X6X6X6X6X3X<X5XqXqXqXqX8XwXwXwX6XuXgXwX4X^.i.=.$.$.$.%.%.%.%.%.*.*.*.*.*.*.",
"S.S.S.S.S.S.S.S.S.S.S.S.!.1X7X7X7X7X9X9X9X9X9X7X7X7X7X7X8X8X8X8X8X8X7X7X7X9X6X<X,X%X,X<X2X6XwX4X&X!.Q.Q.~.,X6XwXwXwXuXgXyX6X4X^.p.=.%.%.%.%.%.%.%.%.*.*.*.=.*.",
"S.S.S.S.S.S.S.S.S.S.S.S.D.~.1X7X7X7X7X7X7X9X9X7X9X7X7X7X7X7X7X8X8X8X8X7X7X8X5X<X+XE.R.R.^.,X2X6X4X%XQ.Q.Q.Q.,XrXfXfXuXfXfXwX4X4X@Xp.*.%.%.%.%.%.%.%.*.=.=.=.=.",
"Z.S.S.S.S.S.S.S.S.S.S.S.S.D.~.1X9X7X7X9X9X7X7X6X3X<X<X3X1X6X7X7X8X8X8X8X8X8X8X8X8X2X+XR.P.R.~.3X6X4X&XQ.Q.Q.Q.rXzXzXyXfXfXuX6X4X2X^.t.%.$.%.%.%.%.%.%.%.=.=.=.",
"s.l.F.Z.S.S.S.S.S.S.S.S.S.S.D.!.<X5X9X9X9X9X9X1X+X!.W.W.^.<X9X7X7X8X8X8X8X8X7X7X7X8X9X,XR.P.P.!.3X6X3X~.Q.Q.Q.eXzXzXjXfXfXjXuX6X4X4XU.4.%.$.$.%.%.%.%.%.<.:.:."
};
