/* XPM */
static char *b50317fdbafe4ac7c3c93dce46ab20c7i5Dyu7t4FCvH9Lb5[] = {
/* columns rows colors chars-per-pixel */
"79 79 231 2 ",
"   c #20427C",
".  c #214682",
"X  c #234A85",
"o  c #284F87",
"O  c #244D8A",
"+  c #284F88",
"@  c #285087",
"#  c #27508C",
"$  c #29528D",
"%  c #31588D",
"&  c #275291",
"*  c #2A5593",
"=  c #2C5996",
"-  c #2E5C9A",
";  c #305790",
":  c #335C94",
">  c #395F95",
",  c #315F9B",
"<  c #2F619E",
"1  c #366097",
"2  c #3C6296",
"3  c #32629D",
"4  c #3B659B",
"5  c #3D689F",
"6  c #305FA0",
"7  c #3364A3",
"8  c #3966A1",
"9  c #3669A5",
"0  c #3A6AA4",
"q  c #3467A9",
"w  c #366AAA",
"e  c #3A6DAB",
"r  c #3E70A6",
"t  c #3D71AD",
"y  c #3B6FB0",
"u  c #3D73B3",
"i  c #3E79B6",
"p  c #3E7DBC",
"a  c #416699",
"s  c #446B9D",
"d  c #496D9C",
"f  c #4B719F",
"g  c #51749E",
"h  c #426DA3",
"j  c #406FAB",
"k  c #4372A6",
"l  c #4C73A4",
"z  c #4274AC",
"x  c #4A76AA",
"c  c #4579AE",
"v  c #4A7BAD",
"b  c #5175A3",
"n  c #567BA7",
"m  c #547DAC",
"M  c #4176B3",
"N  c #447AB5",
"B  c #4A7DB4",
"V  c #4077B8",
"C  c #437CBA",
"Z  c #497FB9",
"A  c #537EB3",
"S  c #3E80BF",
"D  c #5B81AC",
"F  c #4D82B5",
"G  c #4381BE",
"H  c #4C82BB",
"J  c #5385B5",
"K  c #5B86B7",
"L  c #548AB6",
"P  c #5385BC",
"I  c #558BBB",
"U  c #5A8DBB",
"Y  c #5C91BC",
"T  c #6387AD",
"R  c #638AB6",
"E  c #6B8DB5",
"W  c #6493BE",
"Q  c #6D96BB",
"!  c #6A93BC",
"~  c #7396BB",
"^  c #7B9CBD",
"/  c #4383C1",
"(  c #4A84C3",
")  c #4689C5",
"_  c #4B8AC5",
"`  c #468CCA",
"'  c #4A8ECB",
"]  c #5189C2",
"[  c #548BC3",
"{  c #5B8DC2",
"}  c #4B91CD",
"|  c #5591C6",
" . c #5D92C5",
".. c #5493CB",
"X. c #5994CC",
"o. c #5698CF",
"O. c #5D99CD",
"+. c #4D93D0",
"@. c #5698D0",
"#. c #5C9CD1",
"$. c #628FC3",
"%. c #6393C4",
"&. c #6A94C2",
"*. c #6499C4",
"=. c #6B9CC4",
"-. c #6395C9",
";. c #6499CC",
":. c #6A9ACE",
">. c #6A9CCC",
",. c #749DC6",
"<. c #629DD1",
"1. c #6A9ED1",
"2. c #5EA1D5",
"3. c #68A0CA",
"4. c #6DA2CC",
"5. c #7EA1C3",
"6. c #73A4CB",
"7. c #76A5CA",
"8. c #7CA4CB",
"9. c #65A3D4",
"0. c #6BA4D4",
"q. c #6CA9D7",
"w. c #65A6D8",
"e. c #69A7D9",
"r. c #6DABDA",
"t. c #74A5D3",
"y. c #78A5D1",
"u. c #75AAD5",
"i. c #7AAAD5",
"p. c #72ADDA",
"a. c #7AADDC",
"s. c #6FB1DE",
"d. c #7DB1D6",
"f. c #75B3DE",
"g. c #7CB3DC",
"h. c #71AFE0",
"j. c #76B4E0",
"k. c #7AB6E0",
"l. c #7CB9E2",
"z. c #82A3BE",
"x. c #809FC2",
"c. c #84A6C7",
"v. c #84A8CC",
"b. c #8AACCB",
"n. c #90AFCD",
"m. c #8DB2CF",
"M. c #94B3CE",
"N. c #9BB7CE",
"B. c #84AED5",
"V. c #8CB4D3",
"C. c #8BB7D7",
"Z. c #83B4DC",
"A. c #84B9DD",
"S. c #8BBADC",
"D. c #94B9D5",
"F. c #9BBAD3",
"G. c #9CBEDA",
"H. c #A1BED6",
"J. c #82B5E0",
"K. c #84BCE3",
"L. c #8ABEE3",
"P. c #96BFE2",
"I. c #8EC0DE",
"U. c #95C2DF",
"Y. c #9DC4DD",
"T. c #A4C4DC",
"R. c #A4C5DD",
"E. c #ADC9DE",
"W. c #86C0E7",
"Q. c #8CC2E4",
"!. c #8CC3E9",
"~. c #94C5E4",
"^. c #9AC6E4",
"/. c #96C9E6",
"(. c #9BCAE5",
"). c #96C7E9",
"_. c #95CBEB",
"`. c #9BCCE9",
"'. c #9DD1EC",
"]. c #95CEF0",
"[. c #9CD2F1",
"{. c #A5C9E3",
"}. c #A3CCE5",
"|. c #ABCCE3",
" X c #A3CEE9",
".X c #B3CEE3",
"XX c #A3D1E6",
"oX c #ABD4E6",
"OX c #A4D3EB",
"+X c #AAD5EA",
"@X c #ABD8EB",
"#X c #B3D2E5",
"$X c #BCD4E4",
"%X c #B4D5EB",
"&X c #BBD7E8",
"*X c #B5DAED",
"=X c #BCDCEE",
"-X c #A3D5F2",
";X c #A6D8F4",
":X c #ACDCF5",
">X c #ADDEF8",
",X c #B3DDF4",
"<X c #BCDEF4",
"1X c #B2DFF8",
"2X c #BEE0EF",
"3X c #AFE0F8",
"4X c #B5E0F7",
"5X c #BDE1F3",
"6X c #B5E0F8",
"7X c #C6DCEA",
"8X c #C3DDEC",
"9X c #C1DFF2",
"0X c #C4E1EE",
"qX c #CCE2EF",
"wX c #D4E7EF",
"eX c #C3E2F3",
"rX c #CAE5F3",
"tX c #C5E8F6",
"yX c #CDE9F5",
"uX c #CDE7F9",
"iX c #CEEAF8",
"pX c #D1E7F1",
"aX c #D3EBF5",
"sX c #DCEDF4",
"dX c #D5ECF9",
"fX c #DBEEF9",
"gX c #DEF0F6",
"hX c #D4F1FB",
"jX c #DDF1FA",
"kX c #E2F4FB",
"lX c #EAF6FB",
/* pixels */
"c B z 5 0 v F J L L J F N z t t N *.g.g.4.C.$X8. .U [ [ I ] ] P P H [  .;.0.0.-.P c k 0 0 0 8 8 8 8 3 3 3 8 8 0 e t t N H P B z c ,.i.%.A M e 8 : $ + $ : 4 8 ",
"8 3 , , , 3 8 k v J L L F B c t t M I t.d. X7XB.*. .{ U I I P P H H H H [  .;.>.>.:. .{ P P J F B v c k 0 8 8 8 3 7 0 e t t u u z t P y.6.$.J A v 0 , $ # # = ",
"3 , , 3 , 3 3 3 3 r v J L L F N c M M B  .i.i.4.4.4.*. .U U I I P H H H P H [ { -.-.:.1.:.:.:.:.:.1.;. .{ J B M z j 0 0 e e t t t t z t Z { :.:.%.{ B j 8 3 : ",
"3 , 3 3 3 3 8 8 9 9 8 z J L L L F F Z H =.V.7.>.C.Y.i.4.=.%. .U I P H H P P ] H H ] { -.-.-.:.:.:.:.;.-.-.%. . . .{ I B c z e t t t t u u u u N H [ [ N e 0 8 ",
"3 3 3 8 8 8 8 8 9 9 9 0 z J L U I H H H Y.pXG.=.#XpXV.4.4.4.4.6.6.,.=.&.%.P H H H H Z Z H P { {  .{ [ J Z B Z H P I { { { H c t e e t u u u u u w 0 0 8 3 = $ ",
"3 3 8 8 8 9 9 9 9 9 9 0 0 c L U U L H H 7.R.6.F 7.G.y.4.4.6.C.oX=XrXyXrXoX8.F B Z H H H Z N N M M z t e e e w w w w M N Z H P N e 0 e e e u u e 8 = * + O X X ",
"k 8 8 8 8 8 8 9 9 9 9 8 8 0 B L L Y L P F B B B B U >.4.4.C.rXjXjXjXjXjXjXrXW t z z N N M M N N N N B C C C V u e w w e y M V V V u w 9 w e u u u e w 9 3 - = ",
"r 8 8 8 8 8 8 8 8 9 9 9 8 0 r F L =.6.6.*.L F F B H *.4.4.%XfXjXjXkXjXjXaX&XR k r r r k r r z M M N N V V C C C C V e 9 9 w u i u u u u e w e u i i u u u i i ",
"8 8 8 8 8 8 8 8 8 8 8 9 9 9 8 z =.U.@X*XY.3.L J F J *.4.4.*XjXjXkXkXjXfXR.! c r z z Z J P P B B B Z Z N N V C C C C C V w 3 8 w y u u u u u u i i u u u i i i ",
"8 3 3 3 3 3 3 , - 3 3 3 7 8 0 J Y.2XeXeX5XV.W U U Y %.=.6.#XfXjXkXkXkX0X&.B N c N P >.t.i.i.i.t.0.>.%.I H Z C V C C C C C t - = 7 9 w e e u u u u u u u u u u ",
"3 3 - - - - - - - - - - 3 8 J G.2XrXrXrXrX#X7.Y U Y Y =.V.=XjXkXkXkXkX&X=.I L P P -.t.t.t.t.t.i.i.i.i.i.t.-.P Z N N C C V V t = O O * = - 7 9 w y y y y e w w ",
"3 - 3 3 - - - - - - 3 k m Q Y.5XeXrXyXyXyXrXY.7.=.=.6.C.=XyXjXkXkXkXkXaXV.=.*.*.%. .-.>.t.t.t.t.t.i.i.i.i.t.t.;.P N M M V V V t - O O O X X O * - 7 7 , = * & ",
"0 v K U v 8 3 8 k m ! m.oX=XeXrXyXyXyXyXyXyXrX%XR.R.*XeXyXaXjXkXkXkXkXkXrX#X{.{.D.y.%.Y  .;.>.4.:.t.t.t.t.t.t.t.t.{ B e e u u u e = # O X X X O X X $ a 4 $ X ",
"6.Q.`. XS.=.W ,.m.#XyXyXeX5XeXrXyXaXaXaXrXyXyXrXrXrXrXrXyXdXjXkXkXkXkXkXkXkXjXjXdXeXV.Y I I L U I I U %.%.-.>.>.;.-. .B e 7 7 9 q q - * # O O O X X 5 M.M.2 X ",
"/.`.OXOXOXOX,XyXdXdXaXrX5X<X5XrXaXaXaXaX=XeXrXrXrXrXrXrXrXaXjXkXkXkXkXkXkXkXkXkXkXkXrX! v F J I J 0 = = , 5 h k h h h c c 7 = - - - - - = * & O O X 4 b.M.2 X ",
"/.`. XOX`.+XyXdXdXaXrX5X=X*X*XrXaXaXaXaX(. X5XrXrXrXrXrXrXrXfXjXkXkXkXkXkXkXjXjXjXjXpXD $ 1 k v J F 8 $ O X X X X X X X $ : $ O # & * * = = = * & # O + O X X ",
"/./.`./.S.=XaXdXyXeX=X=X*XXX~.<XaXaXaXdX+XK.~.*XeXeXeXeXeXeXyXfXjXkXkXkXkXkXjXdX0X$XN.a X X X : k B B 8 * O X X O O O O O O X X X X X X X O & & * * * & # O X ",
"/././.A.A.8XfXeX<X=X=X=XOXL.A.+XyXdXdXdX=XZ.O.A.`.+X@X*XeXeXeXyXrXdXjXkXjXjXdXyXz.n % X X X X X # 3 z c 0 = = = = = = = * & # O X X X X X X X O O O & * = * & ",
"/././.g.A.9XaX(./.@X*X*XQ.L.~.(.5XaXdXdXrXA...r.f.f.f.L.*XeXeXeX}.+X=X=XaXdXdXrXg X X X X X X X X O * 3 0 e e y u u u u e w 6 * # O X X X O > h 2 4 a > = * * ",
"/./.).g.g.=XeXA.p.L.(./.A./.OXOX}.=XrXyX*Xu.| r.f.f.j.j./.*XeXeX Xd.p.a.@XaXdXdXT # X # * * = 4 : * $ $ & = - 7 9 w w w e e e w 7 * O X O h b.E.M.b.H.c.T n m ",
"Q././.Z.p.^.~.a.q.q.q.q.g.(.XXXXI.A.}.@XQ.0.' w.j.j.j.j.k.`.*XeXeX~.a.r.Q.eXdXfXM.a # = - 7 M m.! e 7 7 7 - = = * * = = = - - 7 7 = O X 2 F.aXjXaXdXjXjXdX7XrX",
"u.L./.A.p.r.p.r.q.q.0.0.a.^.XXXX^.u.p.f.f.q.} #.f.j.j.k.j.k./.*X5X<XA.p.a.+XyXdXrXE % O # * x F.8.V w w w w w w w q - = # O X X X X X X ~ 0XjXdXeXuXfXjXkXkXkX",
"4.L.~.g.p.p.p.r.r.q.q.q.0.A./././.4.r.f.f.f.o...r.j.l.L.l.j.k.~.}.=XC.0.r.g.+XyXdX$XT % O O # , 7 q q w w w w w w w w w q = # X X . X . M.aXdXrX5XeXuXfXjXjXjX",
">.Z.Z.p.p.p.p.p.p.p.p.q.0.0.d.d.g. .9.f.f.f.9.} 2.s.W.XXL.f.j.f.>.B.,.F X.q.g.+XeXdX#XE 2 $ O O $ * = 6 7 q q q w w w w w w - O X . X X 5.rXrXeX<X<XeXrXuXaXuX",
" .;.[ | 0.p.p.p.p.p.r.r.r.0.9.9.3.| o.r.f.f.j.#.| w.k. XQ.f.f.f.H e e e N X.q.f./.<XyX8Xc.m 0 4 4 , = # & * * = - 6 7 7 6 - * O X . X X s R.9X<X<X<X<X<X<X<XeX",
"H C V u [ 0.p.p.p.p.r.0.q.r.r.0.9...' w.f.j.j.f.o.| 9.K.l.f.f.f.X.u w w e M  .q.p.K.XX<XeX+XK.i.t.>.U k : O X X X X X X X X X X X X X X X 5.%X<X<X<X<X<XeXeXrX",
"V V u w e [ 9.r.p.p.p.9.9.q.r.r.0.O.) ..r.j.j.k.9.' } 9.r.f.f.f.0.H e w w e u | 9.r.p.K./.OX^.L.W.!.!.K.%.h $ X X X . . . . . . X X X X X 5.%X<X<X<X<XeXuXaXaX",
"i i e 9 9 w H O.9.r.r.O.[ <.q.r.r.9._ / o.r.j.k.j.../ ' #.r.f.f.f.| u e w w w t I <.r.p.p.r.O.o.r.l.K.!.!.a.t = & X .             . . X # b.<X<X<X5XeXuXaXaXaX",
"i i w 9 9 9 9 t H  .O.[ u H ;.0.r.r.o./ / o.r.j.j.#.) / ) #.r.f.k.r._ u e w w w w B X.9.r.p.r...) ..9.p.a.r.) i w = # X . . . . . . . . s R.<X5X<XeXuXaXaXaXaX",
"i i e 9 9 9 9 9 9 9 w w w e H X.9.q.9.' / / } 9.r.o./ / / ) #.p.j.k.0.H u e e w w w e H O.0.r.r.o.) G G G G S p p p u q < - = * & & $ > c.%X<X5X<XeXuXaXaXrX=X",
"i V i u e e w 9 9 9 w e t u u i H O.9.9.| ) / / ` / / / / / ) o.r.j.k.<.G u t t e e w w t H O.9.e.@.) / S S S S p p p p i u e w q 9 c y.%X<X5X<X X}.%X%X|.D.y.",
"u V V V V V i e w w e u u u u u u V [ 9.9.#.} ) / / / / / / / / ..w.f.j.O.C u i V i u u e e t Z ..#.@.' ) / S S S S p p p S S S / [ L.,X<X5X<X,Xa.<.0. .Z B X.",
"u V V V V C C V u e e e y u u u u u u _ <.q.e.#.| ) / / / / / / / _ #.r.h.O.C i i V V V V u e 0 0 M H ..| _ / / G p p p p S p p _ L.,X<X<X<X,X~.p.0.1.N M -.a.",
"u V V e u i V C Z V u e u u u u u e e e H O.0.r.r.@.' / / / / G / G / ' #.w...V u u i V V V u e 0 9 9 e u C H G C i i i i i i C t.@X<X<X<X,X`.Z.a.a.-.N  .a.Z.",
"u V i q 7 q u V Z G Z C C V V V i u u t e M [ <.0.r.9...) / G G / G G / / ) _ / i i u u u u u e w 9 9 9 9 w 0 9 9 w w w w w N =.OX<X<X<X,X`.Z.a.a.a.P I a.Z.Z.",
"i V i q 7 7 q e C / G H Z C C C Z Z C V V u u C [ <.9.9.o.' / G G G G / / / / / / / C i i u t e e e e w w w 0 w w w w e t H i.@X<X4X<X1X/.t.p.a.a.t.P 0.Z.J.J.",
"i V i q 6 6 6 7 u Z / ( ( ( H Z H G G G G G G Z C C _ ..#.o.' / / G G / G / / / / / / / / G C p i i i u u t e t t t u C  .L.,X4X4X<X1X`.;.N >.a.a.%.-.a.J.J.J.",
"i i V w 7 6 6 6 9 u Z / / ( ( ( ( Z Z Z G G G G Z Z Z Z C G H ( G G C G C G G G G G G / ) ) ) ) / / / / / / G G G _ X.d.-X1X4X4X1X1X`.<.u e 1.a.a.J 4.Z.J.J.J.",
"e e i u q 6 7 7 7 9 u C Z / / / G V i i i V V V i u u t e w w w e e u u i i i i C _ X.<.q.p.r.0.<.#.o.......o.O.0.Z.OX1X4X1X1X1X:X).<.G 9 P p.g.:.P t.Z.g.g.J.",
"7 q u i e q 7 7 7 7 q w u V V V u w 9 q 9 9 9 9 q q q q q q q q q q 9 9 9 w e B %.A.OX:X3X3X3X3X>X-X_.!.Q.~./.-X1X6X4X1X1X1X1XOXL.o./ w z 0.g.a.J P i.a.1.t.J.",
"- - w i V u w 7 7 7 7 7 7 q 9 q q 7 7 q q 9 9 9 9 9 9 q q q q q q 9 9 9 w M U A.;X>X1X1X1X1X1X1X1X1X1X6X6X6X1X1X1X1X1X1X:XOX!.r.} / u - { a.g.>.e N ;.;.[ >.g.",
"- - 7 e V V V u w 9 9 7 7 7 7 7 7 7 9 e B P { { L F N t e w 9 e e t M Z U u.[.:X>X>X1X1X1X>X;X-X[.[.-X-X;X;X;X;X-X-X'._.l.w.} ` / u = 3 >.a.0.Z 8 7 M Z H  .a.",
"- 7 q y i V V C V V u e w w 9 9 e M P >.L.[.[.[.[.W.d.>. .{ {  .-.4.i.Q.-X>X>X:X:X:X:X;X[._.K.f.r.r.r.j.l.K.K.K.k.r.2.} } ` ` / u = O : { %.N e 7 , 8 e M H 1.",
"7 w u i V V V V Z _ [ [ [ H H P -.d._.[.[.[.[.[._._.].].[.[.-X;X>X>X>X>X>X:X:X:X;X-X_.K.r.@.} } } } } } } } } } } } } ' ` ` G w * O O O , = 3 e 9 3 , , 7 N ] ",
"e i V V V Z Z C [ 0.p.p.p.a.k.!._._._._._.!.!.K.f.r.r.r.r.f.K.!._._._.[.[._._._.W.f.#.+.} } } } } ' ' ' ' } } } } ' ' ` ) p w = O O O # * & 3 t t 7 , , - t C ",
"i V V V H X.X.[ ;.>.-. .-.>.:.6.t.t.6.4.>. ._ G ) ) ) ) ' ' ' } @.2.w.e.e.w.#...} } ' } } } } ' ' ' ' ' ' } ' } ' ) / / C i i y = O O = * & 8 M u 9 3 , 3 e C ",
"V V V V ( X.<.X.N 3 - - - = = = = = # . . O = 3 t i C G / / ) ) ' ' ' ' ' ' ' ' ' ' } ' ' ' ' ' ' ` ) ) _ #.0.o.C i V / _ _ ( ( 7 # & , * * e N t 7 3 3 , 9 N ",
"i i i u e 9 7 3 - - - - - , 3 3 3 3 = O . . . X # = 7 e u i u u u V p C G / ) ) ) ) ) ) / G C p i i u w %.{.=XF.A C ( _ _ ( Z t * O - , * , M B w 7 3 3 , 7 M ",
"i u w 3 * * = - - - - 3 8 w e t t e w - X . O = 9 t V V C i 7 O X O * , 9 t i C C C V u 7 - = * O O O O F.dXkXkXG. ._ ( Z V 9 $ O * 7 - $ 0 B B 9 7 7 7 7 7 t ",
"z k , $ O O # $ * * 3 e t u u u u u e - O X , u V V V V i u 7 # O = 9 u V V V V V V V u * O X X X X X @ R.dXkXkXG.P V t 8 $ X O * 7 q * * z Z N 9 7 6 7 7 7 9 ",
"~ M.~ 1 # O O O O # - 9 w w w w 9 3 * O X X - 9 e e e w 7 * O O * e i V V V V i u u w - O X X X X X X X E .X7X$XE : O X X X O * 7 9 7 & , M H N 9 6 6 6 < 7 7 ",
"&XjXqXm = * # O O O O * = = * & O X X X X X X O O # O O O O O O * 7 w e e e w 9 3 * O X X X X X X X X X # n ~ b $ X X ; d 4 , q 9 q = O 3 N H B 9 6 6 6 - < 3 ",
"#XjXrXR 9 3 = # X X X # a b b : O X X X X X X X X O X O O O O * = - 7 7 7 , - = * $ # O O O O X X X X X O O O O # # $ m |.6.r 9 q 7 & O 3 N Z Z w 7 7 7 7 7 < ",
"F.dX8X,.4 = * # X X X d H.aX0X^ : X X X X X X X O O O O O & = 9 w w w w w w w w 9 9 3 - = * * * = s b l 3 = - - 3 7 7 F V.W e 7 , * O O , N Z H u 7 7 7 7 7 < ",
"E.dXjX7Xf X X X X X X ^ rXkXkX7Xd X X X X O O O # # # O O = 9 w w w w w w w w w w w w 9 9 9 9 8 K H.8X.X&.w q 9 9 9 q q 7 7 - = & O O O = M H H C e 7 7 7 6 6 ",
"yXjXjX$Xd X X X X X X ^ qXkXkX7Xd O O O # $ * * * * * $ O - 9 w w w w w w w w w w w 9 e B K A 0 G.fXkXkXE.B q 9 q q 7 7 - * # O O O O O # r Z H H N w 7 6 6 - ",
"jXjXkXc.> X X X X X X d F.7X$X^ : + $ $ * > h : * $ O O O * 7 9 w w w w w w w w w 9 e ! G.#XM.l E.jXkXkX|.B 9 q 7 7 7 = & O O O O O O O O 3 N H H H N e 7 7 7 ",
"jXjXkX$XE : X X X X X X 2 D b % + + # # $ m M.l $ O X X O O & - 7 q 9 9 9 9 9 9 7 , K &XhX8X~ > 5.8XpX7X5.e q q 7 - * O O O X O O O O O O * t C H H H B t 9 7 ",
"fXfXjXjX8X,.l : $ # @ + o o O X X X X X X b b.d O X X X X O O O * 3 8 3 , - = = = = c.rXjXR.d $ > E c.! 0 , - - * 5 l : O O O O O O O O O O 3 M C Z H H H M 9 ",
"yXeX<XrXdXaXE.c.E D n m x h 1 = = $ $ # X X . . . X X X X O O $ l Q ~ m , * * * $ $ ^ rXjX0X~ a : * $ $ $ $ # O O ,.|.R * O O O O O O O O O O 3 z C H H H Z e ",
"%X~.i.S.%XaXdXfXfXaXrX&XE.V.! J J P J v h : O . . . X X X X O 1 R.yXdXE.h $ O O O # E 7XkXjX7Xn.Q T l : O X X X X 8.|.E = O O O O O O O O O O O - e M N Z Z t ",
"i.;.t.Z.^.<XrXyXdXfXfXfXfXfXaX%X^.S.Z.Z.i.%.x 4 $ + X X X O O 0 {.aXrXM.4 O O O O $ ^ rXkXkXkXjXdXdX&X,.n s ; O X 1 l : O O O O O O O O O O O O O & - 8 e e 3 ",
"O.t.^.<XeXeXeXeXeXaXfXfXkXkXfXfXrXP.B.B.Z.Z.Z.6.K x 5 4 > : : = c.rX#Xl # O O O = b .XjXkXkXkXkXfXdXdXdX8XR.E ; X X X O O O O O O O O O O O O O O O O O O O # ",
"X.^.<XeXeXeX9X9X<XyXfXjXlXlXkXfXfXY.%.W >.y.B.Z.A.Z.B.6.>.$.J 0 R &XrX~ s > > s T .XjXkXkXlXlXkXjXdXdXdXaXaXE.a . X X X X O O O O O O O O O O O O O O O O O O ",
"-.}.9X9XeX9X9X<X=XyXfXfXkXlXkXjXaXv.h 1 h P >.t.y.y.y.y.1.-.J x b.rXjXrXF.5.c.H.pXkXkXkXkXkXkXfXaXaXaXaX8XE.^ : . . X X O O O O O O O O O O O O O O O O O O O ",
"X.P.*X<X<X<X%X X~.=XdXfXkXlXkXjX7X! J { { { P P P K K J B k A v.eXjXjXjXjXkXkXkXkXkXkXkXkXkXkX=X+X<XeXrXb.f $ X . . X X X X O O O O O O O O O O O O O O O O O ",
"<.a./.+X+X XA.0.;.S.=XaXfXkXkXjXrXv.&.-.%.%.%.{ { ,.v.v.8.m..XaXjXjXjXjXjXjXjXjXsXsXsXsXsXsXaXU.L.`.XXXX! 1 $ O X . . X X X X X X X O O O O O O O O O O O O O ",
"f.K.L.L.W.K.f.<.o.X.S.=XdXfXkXkXfX8Xm.&.I A A J R R.aXjXjXjXfXfXfXfXfXfXfXdXdXfXsXsXsXsXsXsXpXU.Q.`.OXOXI.J : $ # X X X X X X X X X X X O O O O O O O O O O O ",
"L.L.L.L.L.L.K.<.o.o.d.~.eXdXjXkXfXfXaXR.,.E E x.E.aXjXjXkXjXfXfXgXkXsXfXfXfXfXsXsXsXsXsXsXsXsX^.~.`.OXOXOXC.J 1 * # O X X X X X X X X X X X O O O O O O O O O ",
"L.L.L.L.L.K.f.<.o.o.A.Q.XXrXfXjXkXfXfXfXfXjXkXjXjXjXjXjXjXfXjXgXgXgXsXsXsXsXsXsXsXsXsXsXsXsXsX&X/.`.OXOXOXOX~.W k 3 * # O X X X X X X X X X X O O O O O O O O ",
"l.l.J.K.K.g.0.o.o.o.g.(.).+XrXdXfXfXfXfXfXfXfXfXfXjXjXjXgXgXgXgXgXsXsXsXsXsXsXsXpXsXsXsXsXsXsXpX+X`.`.+X=X2X<X:XC.W x 4 = $ # # # # O O O X X O O O O O O O O ",
"O.<.0.0.0.<.o.o.o.o.u.(.OX).OX<XrXaXaXfXfXfXfXfXfXsXsXsXsXsXsXsXsXsXsXpXrXeX2X=X=X=X0X0XpXsXsXsXpX*X+X=XaXpXrXeX5X@X~.4.x : $ # # # # # # O O O O O O O O O O ",
"o.o.o.o.X.X.X.X.X.o.<.~.oX+X`./.`.%X<XeXeXrXrXrXrXrXrXpXpXaXpXsXsXpX=X+X`.).)./.).~./.`.+X8XpXwXsXsXsXsXwXwX0X*X+X,X,XOXS.J = # O O O O O O O O O O O O O O O ",
"o.o.o.o.X.X.X.X.X.X.o.A.XX+X+X+XOX/.~././.(.}. X X X X+X+X+X%X=X=X+X/.'.OXOXOXOXOXOXOXOX_.).+X8XqXwXpXwXpXqX*X@XOX(.<X,XOXC.x $ X X X X O O O O O O O O O O O ",
"X.X.X.X.X.X.o.o.X.X.o.9.~.+X+X+X+XOXOXOXOXXXOX'.`.`.`.`.`.`./././.'.OXOXOXOXOXOXOXOXOXOX-XOX_.). X%X&X&X%X@X:X:X:XOX5XrX@X'.d.k $ X X X O O O O O # # # # # # ",
"X.X.X.X.X.X.X.o.X.o.o.o.u.(.+X+X+X+XOXOXOXOXOX+X+X+X+X+X@X@X@X@X@X@X+X+X+XOXOX).Q.L.!.).`.OX-X_.K.a.p.p.f.!.OX:X:X:X5XrX5XOX_.d.x $ O O O O O O O O # # # $ # ",
"X.X.X.X.X.X.X.o.X.X.X.o.O.g.(.oXoX+X+X+X+XOXOX+XOX+X+X+X+X+X+X@X@X@X@X+X+X@XXX~.A.p.9.0.d.Q.`.OX'.L.p.r.r.p.W.,XtXtX4XtXrX:X'._.A.x # O O O O O O O # # $ $ $ ",
"[ | ......X.X.X.X.X.X.o.o.O.g.(.oX+X+XoXoX+X+XXX/.).)./.(.OX+X+X@X@X@X@X@X@X@X@X@X(.Z.0.<.9.f./.OX'.K.p.r.r.a.,XdXhX5XtXtX5XOX'.`.d.s O X O O O O O O O $ $ $ ",
"M H _ | ....o.o.X.X.X.o.o.o.O.u.~.XXoXoXoXoXoXY.A.i.i.i.a.~.OX+X+X@X@X@X@X+X+X+X+X@XOXQ.q.<.<.a._.-X_.f.p.r.p.<XhXhXiXtXtXtX,X'.'.'.4.5 O X X O O O O O & * * "
};
