/* XPM */
static char *a241415ee8cb4820abec426c53ac10c3[] = {
/* columns rows colors chars-per-pixel */
"79 79 246 2 ",
"   c #080705",
".  c #0E0D0A",
"X  c #13110D",
"o  c #19150F",
"O  c #161513",
"+  c #1A1710",
"@  c #1D1A13",
"#  c #1C1B19",
"$  c #151819",
"%  c #221D14",
"&  c #201E1A",
"*  c #272117",
"=  c #23221E",
"-  c #2D2519",
";  c #332B1D",
":  c #1A1D22",
">  c #1D2124",
",  c #262521",
"<  c #282722",
"1  c #2C2A25",
"2  c #2C2C29",
"3  c #25282A",
"4  c #302E28",
"5  c #322D23",
"6  c #34322B",
"7  c #3B3427",
"8  c #2D3236",
"9  c #323231",
"0  c #393731",
"q  c #3D3D39",
"w  c #3A3A36",
"e  c #2B2F30",
"r  c #453D2E",
"t  c #493F2E",
"y  c #413C32",
"u  c #3F403B",
"i  c #45433E",
"p  c #534939",
"a  c #343D43",
"s  c #2A3745",
"d  c #3A444B",
"f  c #394654",
"g  c #20427C",
"h  c #3C5976",
"j  c #474947",
"k  c #454D52",
"l  c #4A5458",
"z  c #565959",
"x  c #55534A",
"c  c #5E605F",
"v  c #495765",
"b  c #535E68",
"n  c #465E76",
"m  c #56687A",
"M  c #506270",
"N  c #676A6A",
"B  c #697479",
"V  c #747676",
"C  c #656C73",
"Z  c #605F5B",
"A  c #234A85",
"S  c #244D8A",
"D  c #244983",
"F  c #27518C",
"G  c #2A528D",
"H  c #2D5387",
"J  c #2A5593",
"K  c #2D5995",
"L  c #2E5C9A",
"P  c #275291",
"I  c #335C95",
"U  c #315E9B",
"Y  c #395F94",
"T  c #34598D",
"R  c #32629D",
"E  c #3C659A",
"W  c #356197",
"Q  c #305FA0",
"!  c #3364A3",
"~  c #3668A5",
"^  c #3A6AA4",
"/  c #366AAB",
"(  c #3A6DAB",
")  c #3567A7",
"_  c #3E71AD",
"`  c #3E70A6",
"'  c #3B6FB0",
"]  c #3D73B3",
"[  c #3E7EBD",
"{  c #3E79B7",
"}  c #476A99",
"|  c #537092",
" . c #6B7B88",
".. c #416DA3",
"X. c #436EA8",
"o. c #4374AC",
"O. c #4A7BAD",
"+. c #4874A8",
"@. c #557BA9",
"#. c #4276B2",
"$. c #447AB4",
"%. c #4A7CB4",
"&. c #437BBA",
"*. c #497FB9",
"=. c #4077B8",
"-. c #517EB5",
";. c #3F81BF",
":. c #728592",
">. c #4D82B5",
",. c #4381BF",
"<. c #4C82BB",
"1. c #5384B4",
"2. c #5285BC",
"3. c #558BBB",
"4. c #5A8DBB",
"5. c #5887B6",
"6. c #5B91BB",
"7. c #5D83AF",
"8. c #6A87A9",
"9. c #758CAA",
"0. c #7C95A7",
"q. c #658CB8",
"w. c #6993BC",
"e. c #7699BA",
"r. c #728EB0",
"t. c #7CA2BB",
"y. c #4483C2",
"u. c #4A84C3",
"i. c #4C8BC5",
"p. c #478CC9",
"a. c #548BC3",
"s. c #5B8DC2",
"d. c #5288C2",
"f. c #4B91CC",
"g. c #5D92C5",
"h. c #5593CB",
"j. c #5994CC",
"k. c #5D99CD",
"l. c #5594CB",
"z. c #5B9AD0",
"x. c #6393C4",
"c. c #6A9CC4",
"v. c #6395C9",
"b. c #649ACC",
"n. c #6A9BCC",
"m. c #6896C4",
"M. c #759DC5",
"N. c #629DD1",
"B. c #6A9ED1",
"V. c #628FC3",
"C. c #6EA2CC",
"Z. c #68A0CA",
"A. c #73A4CC",
"S. c #7AA4C9",
"D. c #65A3D4",
"F. c #6BA4D4",
"G. c #6CA9D7",
"H. c #6DABD9",
"J. c #66A6D8",
"K. c #74A5D3",
"L. c #75ABD6",
"P. c #7AAAD5",
"I. c #72ADDA",
"U. c #7AADDB",
"Y. c #78A5D2",
"T. c #75B3DE",
"R. c #7CB3DC",
"E. c #7DB1D6",
"W. c #7AB6E0",
"Q. c #5DA3D6",
"!. c #848D98",
"~. c #8C9497",
"^. c #849AB5",
"/. c #8998A7",
"(. c #98A8B7",
"). c #91A6B3",
"_. c #A8B2B6",
"`. c #9FA29F",
"'. c #86A7C7",
"]. c #8DB1CF",
"[. c #96B3CC",
"{. c #84AED6",
"}. c #83B4DC",
"|. c #8BBBDD",
" X c #88B6D8",
".X c #98BBD6",
"XX c #A2BDD4",
"oX c #ACB8C7",
"OX c #83BBE2",
"+X c #8ABEE3",
"@X c #82B5E0",
"#X c #96BFE2",
"$X c #809FC2",
"%X c #9CC4DD",
"&X c #8DC0DE",
"*X c #ACC9DD",
"=X c #A5C5DC",
"-X c #B7C9D8",
";X c #B9C5CB",
":X c #8CC2E4",
">X c #8DC3E9",
",X c #94C5E4",
"<X c #96C9E6",
"1X c #9BCAE5",
"2X c #96CBEB",
"3X c #9CCCE9",
"4X c #9AC5E4",
"5X c #9DD1EC",
"6X c #9ED3F1",
"7X c #A4CEE9",
"8X c #A6CDE6",
"9X c #ACD4E6",
"0X c #A4D3EB",
"qX c #AAD5EA",
"wX c #ABD8EB",
"eX c #A3D1E6",
"rX c #B3D5EC",
"tX c #B5DAED",
"yX c #BBDDEE",
"uX c #B7D4E5",
"iX c #A9D9F3",
"pX c #B4DDF4",
"aX c #BCDEF4",
"sX c #B3DFF8",
"dX c #B2CDE3",
"fX c #BDE1F3",
"gX c #B6E0F7",
"hX c #BEE0EF",
"jX c #C8D2D8",
"kX c #C6DCE9",
"lX c #C1DFF2",
"zX c #C8E2EE",
"xX c #D6E7ED",
"cX c #C3E2F3",
"vX c #CAE5F3",
"bX c #CDE9F5",
"nX c #CAE9F8",
"mX c #D3EBF5",
"MX c #DBEDF4",
"NX c #D4ECF9",
"BX c #DBEEF9",
"VX c #D2E7F1",
"CX c #DEF1FA",
"ZX c #D9F0F8",
"AX c #E2F3FA",
"SX c #EAF6FB",
/* pixels */
"o.%.o.E ^ O.>.1.5.3.1.>.$.o._ _ $.b.R.R.C..XuXS.g.3.a.a.2.d.d.2.2.<.a.g.b.F.F.v.2.o.o.^ ^ ^ ^ ^ ^ ~ R R R ~ ~ ^ ( _ _ $.<.2.%.o.o.M.P.x.-.#.( ~ I G D G I E ~ ",
"~ R U U U R E X.O.1.5.3.>.%.#._ _ o.3.K.E.8XkX].m.g.a.3.2.2.2.2.2.2.<.<.a.g.b.n.n.n.g.s.2.2.2.>.%.O.o.o.^ ^ ~ ~ R ! ~ / _ o.] ] _ _ 2.Y.A.V.2.-.O.^ U G G G K ",
"R U U R U R R R R ` O.1.3.3.>.$.#.#.#.$.g.P.P.C.C.C.m.g.4.3.3.3.2.2.<.<.2.<.a.g.v.v.n.B.n.n.n.n.n.n.b.g.s.2.%.#.o.X.^ ^ ( ( _ _ _ _ _ _ *.s.n.n.x.s.%.X.~ R I ",
"R U R R R R R ~ ~ ~ ^ o.1.3.3.3.>.>.$.>.c. XA.c.|.%XP.C.c.x.g.4.3.2.<.<.2.2.2.<.<.2.s.x.v.v.n.n.n.n.b.v.x.g.g.g.g.s.3.%.o.o.( _ _ _ _ ] ] #.] $.<.a.a.$.( ^ ~ ",
"R R R R ~ ~ ~ ~ ~ ~ ~ ~ o.1.3.4.3.<.<.<.%XVX.Xc.uXVX XC.C.C.C.A.A.M.c.m.x.2.<.<.<.<.*.*.<.2.s.s.g.s.a.2.*.%.%.*.2.3.s.s.s.<.o._ ( ( _ ] ] ] ] _ ( / ^ ~ R K G ",
"R R ~ ~ ~ ~ ~ ~ ~ ~ ~ ^ ^ O.5.4.4.3.<.>.S.=XA.>.S..XY.C.C.K. X9XyXvXbXvX9XS.>.$.*.<.<.<.*.$.$.#.#.o._ ( ( ( / / / / #.$.*.<.<.$.( ^ ( ( ( ] ] ( ~ K J F S A A ",
"o.~ ~ ~ ~ ~ ~ ~ ~ ~ ~ ^ ^ ^ %.3.4.6.3.2.>.$.$.$.$.3.n.C.C.|.vXxX;XCXCXMXCXvXq._ o.%.$.$.#.#.$.&.4.m.$.*.'.*.=.] ( / / ( ] #.=.=.=.] / ) / ( ] ] ] ( / ) R U K ",
"` ~ ~ ~ ~ ~ ~ ~ ~ ~ ~ ~ ^ ^ ` >.4.c.A.A.x.3.>.>.$.<.b.C.C.rXBXMX_.MXAXMXVXuXq.o.` 1.r.o.` ` o.#.#.%.$.=.3.4.*.*.*.=.( ) ) ( ] { ] ] ] ] ( ( ( ] { { ] ] ] { { ",
"^ ~ ~ ~ ~ ~ ~ ~ R ~ ~ ~ ~ ~ ^ o.c.%XwXtX%XZ.3.1.>.1.x.C.C.yXCXMX;XMXAXMX*Xw.o._ o.f j > # n w.%.%.5.'.$.%.w.*.*.*.*.&.=.) R ~ / ' ] ] ] ] ] ] { ] ] ] ] { { { ",
"~ R R R R R R U L R R R R ~ ^ 5.%XhXcXcXfX Xw.4.4.6.x.c.A.uXMXMX_.CXAXzXw.%.$.o.O 1 >   # ~..XL.K.n.x.s.<.*.&.=.&.*.*.*.*._ L K ! ) ) ( ( ] ] ] ] ] ] ] ] ] ] ",
"R R L L L L L L L L L L R ^ 1..XhXvXvXvXvXuXA.6.4.6.6.c. XlXCXMX`.MXAXuXc.3.3.. 8 2 #   # :. XP.P.P.P.L.K.v.2.*.$.=.=.=.=.=._ K S S J K L ! ) ( ' ' ' ' ( / ) ",
"R L R R L L L L L L R X.-.w.%XfXvXbXbXbXbXvX%XS.c.c.A. XyXbXCXAXAXjXMXjX].c.a O X O O   # :.{.P.L.P.{.P.P.P.L.b.2.$.#.] =.=.=._ L S S S A S S J L ! ! U K J P ",
"^ O.5.4.O.^ R ~ X.-.w.].9XyXcXvXbXbXbXbXbXbXvXuX=X=XtXvXbXmX~.Z y 4 < , j _.).V b  .!.'.XX/.'.C.n.Y.{.L.L.P.L.K.K.s.%.( ( ] ] ] ( K F S A A S S A A G } E G A ",
"Y.:X3X7X|.c.w.c.].uXbXbXcXfXcXvXbXmXmXmXvXvXxXvXvXvXvXz j r 4 4 6 4 = 2 `.AXCXCXNXcX.Xm.oXm e.4.4.8.~.x.x.v.n.n.b.v.g.%.( ! ! ) ) ) L J F S S S A A E [.[.E A ",
"1XeX0X0X0X0XpXbXNXNXmXvXcXyXfXvXmXmXmXmXyXcXvXvXvXvX1 < 1 1 6 6 6 1 1 q AXAXAXAXAXAXvX^.n z b n a 1 f K R E ..X.X.X.X.O.o.! K L L L L L K J P S S A E '.[.E A ",
"uXuX0X7X3XqXbXNXNXmXvXfXyXyXtXvXmXmXmXmX1X7XaXvXvX4 1 0 0 < 6 1 4 6 4 i AXAXAXxXjX`.V q 6 6 6 < = >.^ G S A A A A A A A G I G S F P J J K K K J P F S G S A A ",
"uX3X3X3X|.yXmXNXbXcXyXyXtX0X,XaXmXmXmXNXqXOX,XtXj 6 6 4 6 4 6 < 4 6 1 6 `.MXkXN 6 < 4 6 0 4 6 4 1 %.%.^ J S S G S S S S S S A A A A A A A S P P J J J P F S A ",
"2X1X8X|.=XkXMXcXaXyXyXyX0X+X}.qXbXNXNXNXyX}.k.}.6 4 1 1 1 4 1 1 < < , = V jXV 1 1 6 2 6 4 1 4 4 1 6 | 1.^ U U ..K K K K J P F S A A A A A A A S S S P J K J P ",
"eX9XuX-X*XkXmX1X1XwXtXtX:X+X:X3XfXmXNXNXvX}.l.H., 1 = = 4 k C C j i 1 # 2 V w < < 1 < 2 6 1 & < # # a ..^ ( ( -.] ] ] ] ( ) ! J F S A A A S Y ..E E } Y K J J ",
"kXuX8XjX.XyXcX}.I.+X3X4X}.1X0X0XeXyXvXbXtXL.h.H.w 4 & z (.uXzXkX~.oX0.b q 6 6 1 # 1 d F J m v  .b a 3 G P K L X.) ) ) / / ( / / ! P A A S ..'.*X[.].XX'.q.@.@.",
",XuXjX|.U.4X,XU.G.G.G.G.R.1X0X0X&X}.eXwX:XF.i.B < > V -XOX8XyXkX~.4XU.H.t.!.0 < x !.Y K L /.#.].w.( ! ! ! L K K ..J K K K L L ! ! K S A E .XmXCXmXNXCXCXNXkXvX",
"-X*X8X|.I.H.I.H.G.G.F.F.U.4X0X0X4XL.I.T.T.G.f.:.# V .XOXW.W.2XkX~.;X}.I.U.~.# N jX'.T S F | o..XS.=./ / / / / / q.) L K F S A A A A A A e.zXZXNXcXnXBXCXAXAXAX",
"XX,X,XR.I.I.I.H.H.G.G.G.F.}.1X1X1XC.H.T.T.T.l.e.a _.+X+XOXW.W.[.B _.|.F.H.R.z jXVXuX8.T S M F U ! ) ) / / / / / / #./ / ) K F A A D A D [.mXNXvXfXcXnXBXCXCXCX",
"n.}.}.I.I.I.I.I.I.I.I.G.F.F.E.E.R.g.D.T.T.T.D.XX/.A.:X0X+XT.W._.j  .'.>.j.G.(.=XkXmXdXq.} !.S S F +.K Q ! ! ) / / / / / / ) L S A D A A S.vXvXfXaXaXcXvXnXNXnX",
"g.b.a.h.F.I.I.I.I.I.H.H.H.F.D.D.D.a.k.H.T.T.W.z.f.J.W.7X:XT.T.0.q  .( ( $.j.0.).(.(.bXlX'.!.^ E E U K F F J J K L Q ! ! Q L K S D D A A } =XaXaXaXaXaXaXaXaXcX",
"<.&.=.] a.F.I.I.I.I.H.F.G.H.H.F.F.l.i.J.T.W.W.I.l.h.J.W.W.-XT. .r f C z j q 9 6 4 k ).aXcXi j L.K.c.3.+.I S A A A A T S A A A A A A A A A S.rXaXaXaXaXaXcXcXvX",
"=.=.] ) ( a.D.H.I.I.I.D.D.G.H.H.L.k.i.h.H.W.W.OX'.0.8.9.:.V z 0 6 6 < < 1 6 1 < 8 e.I.OX_.N z +X:X>X>XOXx...G A A A 9.A D D D D A A A A A S.rXaXaXaXaXcXnXNXNX",
"{ { ( ) ) ( <.k.D.H.H.k.a.N.G.U.].D.i.y.l.H.{.:.j j q 0 6 4 6 6 6 6 4 1 1 = = 1 m K.H.0.~.u a j l j +X>X>XL.2 :.I S D g g g g g g D D A G ].aXaXaXfXcXnXNXNXNX",
"{ { ) ) ~ ) ) _ <.g.k.a.] 2.b..XH.H.l.y.y.].k < < 1 6 6 6 6 1 1 6 0 0 6 < = , 1 V  .h 1 # O = 1 < < 1 4 1 < V [._ K F A D D D D D D D D } =XaXaXlXcXnXNXNXNXmX",
"{ { ( ) ) ) ) ) ) ) ( / / o.'.^.D.G.D.f.y.m 1 < 1 1 < 4 6 1 1 6 6 6 6 6 < , < = O X X . X # 6 6 6 4 < = , < | [ [ { ] ( Q L K J P P G Y '.rXaXaXsXcXnXNXmXvXyX",
"{ =.{ ] ( ( ) ) ) ) / ( %.q.(.{ <.k.D.D.h.d 4 1 1 4 q q 6 , 6 6 6 < 4 4 4 1 6 = X X X . X = 6 0 0 6 , , , 1 | ;.[ [ [ [ { ] / ) ) ) o.Y.rXaXaXaX7X7XrXrX8X.XY.",
"] =.=.=.=.=.{ ( ) ) ( ] '.(.] ] ] =.a.c.0.6 4 4 6 6 4 j 1 , 6 6 4 , 4 6 4 1 0 < # X X . O , 6 6 6 4 1 < 1 e z B z [ [ [ [ ;.;.;.y.a.+XpXaXfXaXpXU.N.F.g.*.$.j.",
"] =.=.=.=.&.&.=.] ( %.[.q.] ] ] ] ] r.-XC 1 6 0 0 1 1 1 < 6 6 6 6 , 4 6 6 4 4 1 < 9 1 # & , 4 < 4 6 4 1 6 < 1 < ,.[ [ ;.;.;.;.;.i.+XpXaXaXaXpX,XI.F.B.$.#.b.U.",
"] =.=.( ] { =.*.&.=.] (.] ] ] ] ] ( w.'.b 3 1 6 4 < 4 < 1 6 6 1 6 1 4 4 4 1 = < , 2 < 6 4 6 6 , 4 6 4 4 6 1 = # &.{ { { { { { *.Y.wXsXaXsXpX7X}.U.U.v.$.g.U.}.",
"] =.{ ) ! ) ] =.&.,.&.*.*.=.=.=.{ %.%.` 8 = < 1 = , 1 < = < 1 1 1 < = = < , & = = < = 6 4 1 4 < 4 6 6 1 < 1 O . ) ) ) ) ) ) $.c.qXsXsXsXpX3X}.U.U.U.2.3.U.}.}.",
"{ =.{ ) Q ! ! e.=.y.,.<.&.*.*.*.s.2.*.2.j 8 i 1 & & , a N i.y.y.,.i 1 @ # # # # = # , 1 1 = = = = < 1 < & , # . ) ) ) ( _ <.P.iXsXgXsXsX1XK.I.U.U.K.2.F.}.@X@X",
"{ =.{ ) ! ! Q ! ] &.u.u.u.u.<.d.<.2.m.s.v s 1 # # d i.j.-Xz.i.y.y.j 1 & 3 4 # X O y.y.b y.,.# X X X # # # & = X _ _ ] *.g.+XpXgXgXsXsX3Xb.$.n.U.U.x.v.U.@X@X@X",
"{ { =./ ! ! Q Q C ] &.u.y.u.d.m.d.&.,.w.4 # N ,.&.&.&.S.-XM.n b s 6 < + = $ ,.,.,.,.,.y.p.i.: O > y.y.y.d , : ,.,.3 j.E.0XsXgXgXsXpX3XN.] ( B.U.U.1.C.}.@X@X@X",
"( ( { ] ) ! ! ! ! l ] =.&.y.u.u.d.*.{ w.9 q =.=.{ ] '.M.oX8.f m m x , X 9 { { { &.a.j.N.G.k $ 3 d z.j.h.h.1 a k.F.}.0XpXgXsXsXsXiX<XN.,.) 2.I.R.n.2.L.}.U.R.@X",
"! ) ] { ( ) ) ! ! ! C ( ] =.=.=.=.) ) ^ v ) ) ) ) o.oXoX..!.N d i 1 # # ) ) ( %.'.}.0Xc l c j l z 0X2X:X:Xe q iXpXgXgXsXsXsXpX0X+Xl.y.) o.F.R.U.2.2.L.U.B.K.@X",
"L L ) { =.] ) ) ! ! ! N ! ) ) ) ) O.) X.@.) ) r.8.oX8.@.).8.8.) 3 z 8 | ) o.4.}.iXsXsXj j 6 , 2 j sXsXgXgXi 6 j pXpXsXpXiX0X:XH.f.y.] L s.U.R.n.( $.b.b.a.n.R.",
"L L ! ' =.=.=.] 5.) ) ! l ! ! ! ! ) -._ %.q.[.[.'._.e.e.5.o.e.( 1 z k 9.4.L.5XsXsXsX*Xl 2 2 6 j ).5X0X0Xw i 6 q iX0X5X%XW.J.f.p.y.] K R n.U.F.*.~ ! #.*.<.g.U.",
"L ! ) ' { =.=.&.=.=.] ( ) x ) ) ( #.2.C.|.5X6X-X;X|.%XA.g.M.-X .q b c B iXsXsXB x x l j  .V l m ).H.H.W.j d < k W.H.Q.f.f.f.p.y.$.K S I s.x.$.( ! U ~ ( #.<.B.",
"! ) ] { =.=.=.=.&.n.a.a.a.<.q 2.v.E.2XjX6X6X*XXX*X;X4X<X[.!.:.i 0 0 9 1 2 1 1 6 w 6 1 :.(. .j N h 5.f.f.q 0 4 r i 4 9 f.f.p.,./ K S S S U K R ( ) R U L ! $.d.",
"( { =.=.=.&.&.&.a.P..XI.I.U.W.8 2X2X2X2X2X>XN c k q q w 6 1 4 4 6 6 6 1 < 1 4 1 < < , 8 6 > + # O O # 1 4 6 6 4 1 , k p.p.,.) K S S S F J P R _ _ ! U U R #.*.",
"{ =.=.=.<.j.j.a.b.A.v.g.v.n.n.A.r K.A.C.c.i = < < 1 6 6 6 1 6 4 4 6 6 6 6 4 , = = , # X . . X . O O = 1 1 6 1 < 1 p.y.y.&.{ { ' K F S K J P ~ #.] ) R U R ( *.",
"=.=.=.=.u.j.N.k.$.R L L L K K K K r S D C 1 1 < 1 < , 4 6 9 < 9 e 6 0 0 0 6 = , , < O X . . . . X O 1 6 4 < , = < { =.y.u.i.u.y.! F P U J J ( $._ ! R R R ) $.",
"{ { { ] ( ) ! R U L L L L U R R R U 1 !.i 6 1 1 1 1 8 6 6 1 , 8 8 0 6 4 6 1 1 < 1 < # . . X O O X # 2 0 6 = < = , 4 6 1 < u.&._ J S L U J U #.$./ ! R R R ! #.",
"{ ] / R J J K K K L L ! ) ) ( _ _ ( / e 1 1 1 4 1 1 6 j 9 = < 6 6 6 , 1 4 6 4 1 6 1 # O # & # # O O = 6 4 1 1 , = < < = &.=.) G S J ! L G ^ $.$.) ! ! ! Q ! _ ",
"o.+.U G F F F G J J R ( _ ] ] ] ] ] ( j % * 6 6 < < 6 4 1 6 6 1 1 6 1 1 6 6 4 4 < 4 , 6 0 6 6 6 2 = 6 6 0 6 4 6 = . X X ~ G A S J ! ) J J o.*.$.) ! ! ! Q R ) ",
"e.[.e.W F F F F S F L ) ) ) ) (.oXE /.6 - ; ; 7 7 ; 7 7 7 5 , < < < 1 , < < 1 < & = , 0 0 6 1 6 6 < 4 1 6 6 6 1 < X X X D A S J ! ) ! P U #.<.$.) ! ! ! Q R ! ",
"yXCXzX@.K J G S S S S J K K k k j 2 7 5 5 6 1 < < 1 1 < S S S S # @ , , # # & & # # = , , = # & = & # # = < 4 = 1 O . . 1 E U ) ) ) K S R $.<.$.) ! ! ! L Q R ",
"uXCXvX5.~ R K G S A A G } 8 = , 1 6 4 4 1 4 4 1 1 < , < S S S J 6 1 8 3 < O X O , , # # $ # . X 1 1 : < < , < , 1 # . . O z ` ) ) ! P S R $.*.*./ ! ! ! ! ! Q ",
".XNXkXe.E K J F A A A } XX1 < 1 1 6 6 < < 6 6 6 < = = S S P K v < # # X # q / / | | h O O # O J K } } @.} s # 2 < = X . . X 1 ! U J S S L $.*.<.] ! ! ! ! ! Q ",
"*XNXCXkX} A A A A A A e.4 1 1 w q q , 1 4 6 4 4 1 < < S S K ) q o 0 ) / r./ / / / ) ) : ) ) 1 ~ 5.XXkXdXm.C , 8 o @ X X X X X % P S G S K #.<.<.$./ ! Q ! ! Q ",
"bXCXCXuX} A D A } A A j 1 0 6 1 0 6 1 6 6 < 1 6 4 4 6 G S L ) q % 0 ) ) ) ) ) / ) ) ) Y %.5.1 ^ .XBXAXAX*Xq o + + X @ @ @ % % * S S S S F ` *.<.<.=.) ! ! ! Q ",
"CXCXCX'.Y A D } Y D D 1 < 6 < 1 4 < 6 < 4 < 1 6 4 1 4 = > 2 2 , - 7 z ) ) ) ) : q ) ( w..XuX& +.=X# # X X . X o + o @ + % % @ % , S S S S R $.<.<.<.$.( ! ! ! ",
"CXCXAXuXq.Y A H (.D D 6 9 1 # & , S G G G @.[.= , = & = o % X X X + X o % X + % * < 9 uXZXkX# < @ X X X X X X + @ @ % % % X @ - % S S S S J _ *.<.<.<.$._ ) ! ",
"BXBXCXCXkXM.+.Y @.G D q < S S A A A A A A @.'.} = O O # @ % X X X X O . . X @ @ @ @ @ 2 j 1 % 5 * * @ @ % % % % + % ; - 7 @ % % % S S S S S R #.*.<.<.<.<.#.) ",
"bXcXaXvXNXmX*X'.w.7.@.# O...R K K G G G A A D D 1 o + O O X . X X . .   . o * - * * % % @ @ @ @ + @ o o @ % @ % X @ * % * o @ * 7 S S S S S S R o.*.<.<.<.*.( ",
"rX,XP.|.rXmXNXBXBXmXvXz dX].w.5.1.2.1.O...I S D D + % % X X . . .           . X X + @ * * % & * % * * % * * % & @ % * * * @ + * S S S S S S S S L ( #.$.*.*._ ",
"L.b.K.}.4XaXvXbXNXBXBXBXBXBXVXrX4X|.}.}.P.x.+.E G S % - % X .     . . X . . X o X X . . . . . X X X X X O @ @ @ @ @ @ O O X . $ S S S S S S S S S P L ~ ( ( R ",
"k.K.4XaXcXcXcXcXcXNXBXBXAXAXBXBXvX#X{.{.}.}.}.A.4.+.E s % % X X X + % + @ @ @ @ @ @ @ @ @ @ @ @ + @ @ o @ @ @ @ @ @ @ + % 1 S S S G S S S S S S S S S S S S F ",
"k.4XaXcXcXcXlXlXaXbXBXCXSXSXAXBXBX%Xx.q.n.Y.{.}.}.}.{.A., + . . . . X + % % % * * % % @ @ @ @ @ @ + + + o @ + + @ @ + @ % j S S S G S S S S S S S S S S S S S ",
"v.8XlXlXcXlXlXaXyXbXBXBXAXSXAXCXmX'.X.R X.2.n.K.Y.Y.Y.Y.8 @ . . . X X X o + @ % % % % % % % % % % % % % @ % @ % % % % % - S S S G S S S S S S S S S S S S S S ",
"k.#XrXaXaXaXrX7X,XyXNXBXAXSXAXCXkXw.2.s.s.s.2.2.2.5.4.5.%.% X . . X o @ % % @ @ @ @ + @ @ @ % + @ @ @ % @ @ @ % @ % % * A A S 9.Y S S S S S S S S S S S S S S ",
"N.U.2XqXqX7X}.F.k.|.yXmXBXAXAXCXVX'.m.x.x.x.x.g.s.M.'.'.S.1 @ . . X o @ @ @ % @ @ @ @ % @ % @ @ % % % @ % % % % % % % ; A A /.^.G A S S S S S S S S S S S S S ",
"R.OX+X+X:X+XT.N.j.j.|.yXNXBXAXAXBXkX].m.5.-.-.1.q.=XmXCXCXCX- X X X + @ + @ @ @ @ + + @ @ @ @ @ @ @ @ @ @ @ @ @ @ @ @ ; A A oX^.G A A A S S S S S S S S S S S ",
"+X+X+X+X+X+XOXN.j.j.E.,XcXNXCXAXBXBXmX=XM.q.q.$X*XmXCXCXCXCXCXX X o o @ @ + @ + + + + @ @ @ @ @ @ @ @ @ @ @ % @ @ @ @ ; A A } 9.| A A A A A S S S S S S S S S ",
"+X+X+X+X+X+XR.N.j.j.R.:X0XvXBXCXAXBXBXBXBXCXAXCXCXCXCXCXCXCXCX- @ X o o o + @ + + + + @ @ @ @ @ % @ @ @ @ @ @ @ @ @ % 7 A A ^.^.| G A A A A A S S S S S S S S ",
"W.W.@XOXOXR.D.j.j.j.R.3X<XwXvXNXBXBXBXBXBXBXBXBXBXCXCXCXCXCXCXx t t r r 7 y r i r y r r t y y r r r 7 0 r t r 0 p q q p K G F ^.Y @.S S S A A S S S S S S S S ",
"k.N.D.F.F.N.j.j.j.j.L.1X0X<X0XaXvXmXNXMXMXMXMXMXMXMXMXMXMXMXMXMXMXMXMXVXvXcXhXyXyXyXzXzXVXMXMXMXVXtXqXyXVXVXvXcXfXwX,XC.O.I G F F F F F F S S S S S S S S S S ",
"j.j.j.j.j.j.j.j.j.j.N.,X9XqX3X4X3XwXaXcXcXvXvXvXvXvXvXVXVXVXVXMXMXVXyXqX3X<X<X<X<X,X4X3XqXlXVXMXMXMXMXMXVXVXzXpXqXpXpX0X|.1.K F S S S S S S S S S S S S S S S ",
"j.j.j.j.j.j.j.j.j.j.j.}.eXqX9XqX5X<X,X4X1X1XeXeX7X7X7XqXqXqXrXyXyXqX1X5X0X0X0X0X0X0X0X0X<X<XqXlXVXxXVXxXVXvXtXwX0X1XaXpX0X|.O.G A A A A S S S S S S S S S S S ",
"j.j.j.j.j.j.j.j.j.j.j.D.,X0XqXqXqX0X0X0X0X0X0X3X3X3X3X3X3X3X<X4X4X5X0X0X0X0X0X0X0X0X0X0X0X0X<X<X8XrXrXrXrXwXiXiXiX0XfXvXiX5XE.+.G A A A S S S S S F F F F F F ",
"j.j.j.j.j.j.j.j.j.j.j.j.L.1XqXqXqXqX0X0X0X0X0XqXqXqXqXqXwXwXwXwXwXwXqXqXqX0X0X<X:X+X:X<X3X0XiX2XOXU.I.I.R.:X0XiXiXiXfXvXfX0X5XE.+.G S S S S S S S S F G G G F ",
"j.j.j.l.l.l.j.j.j.j.j.j.k.R.3XqXqXqXqXqXqX0X0XqX0XqXqXqXqXqXqXwXwXwXwXqXqXwXeX<X}.I.D.F.E.:X3X0X5X+XI.H.H.I.:XpXcXcXgXcXcXiX5X5X}.+.G S S S S S S S S F G G G ",
"a.j.j.h.h.l.j.j.j.j.j.j.j.k.R.1X9XqXqX9X9XqXqX0X1X<X<X1X1X0XqXqXwXwXwXwXwXwXwXwXwX1X}.F.N.D.T.<X0X5XOXI.H.H.U.pXNXNXfXcXcXfX0X5X3XE.} S A S S S S S S S G G G ",
"#.<.i.h.j.h.h.j.j.j.j.j.j.j.k.L.,XeX9X9X9X9X9X1X XL.L.L.U.,X0XqXqXwXwXwXwXqXqXqXqXwX0X:XF.N.N.U.2X0X2XR.I.H.I.aXNXNXnXcXcXcXgX0X5X5XC.E F A A S S S S S P J J "
};
