/* XPM */
static char *_8cb25dea6b748f1a7b02a9335c6683c[] = {
/* columns rows colors chars-per-pixel */
"79 79 246 2 ",
"   c #080705",
".  c #0E0D0A",
"X  c #13110D",
"o  c #19150F",
"O  c #161513",
"+  c #1A1710",
"@  c #1D1A13",
"#  c #1D1C19",
"$  c #141718",
"%  c #221D14",
"&  c #201E1A",
"*  c #272117",
"=  c #23221E",
"-  c #2D2519",
";  c #332B1D",
":  c #191E23",
">  c #262521",
",  c #282722",
"<  c #2C2A25",
"1  c #2C2C2A",
"2  c #242829",
"3  c #302E28",
"4  c #322D23",
"5  c #33322C",
"6  c #3B3528",
"7  c #262C34",
"8  c #2C3135",
"9  c #2C343B",
"0  c #333533",
"q  c #393731",
"w  c #3D3D3A",
"e  c #393A37",
"r  c #2F302E",
"t  c #1B2126",
"y  c #453E2E",
"u  c #493F2E",
"i  c #413C31",
"p  c #3F403B",
"a  c #44433D",
"s  c #574D3C",
"d  c #2E3A45",
"f  c #3A434A",
"g  c #3B4754",
"h  c #20437D",
"j  c #394D64",
"k  c #464847",
"l  c #58554D",
"z  c #495359",
"x  c #555858",
"c  c #4F4F4B",
"v  c #4E5B67",
"b  c #596268",
"n  c #586877",
"m  c #4E6373",
"M  c #676969",
"N  c #6B7579",
"B  c #757676",
"V  c #6A6D70",
"C  c #5F605C",
"Z  c #214682",
"A  c #234A85",
"S  c #244D8A",
"D  c #284F88",
"F  c #27518C",
"G  c #29528C",
"H  c #32568A",
"J  c #2A5593",
"K  c #2D5996",
"L  c #2E5C9A",
"P  c #275291",
"I  c #335C94",
"U  c #315F9B",
"Y  c #375D93",
"T  c #304E83",
"R  c #32629D",
"E  c #3B659C",
"W  c #3A6499",
"Q  c #2F619E",
"!  c #3364A3",
"~  c #3668A5",
"^  c #3A6AA4",
"/  c #366AAB",
"(  c #3A6DAB",
")  c #3667A6",
"_  c #3D71AE",
"`  c #3E70A6",
"'  c #3B6FB0",
"]  c #3D73B3",
"[  c #3E7EBC",
"{  c #3E79B7",
"}  c #305FA0",
"|  c #415D85",
" . c #456A9C",
".. c #537096",
"X. c #647788",
"o. c #6C7D8F",
"O. c #416EA7",
"+. c #4274AD",
"@. c #4A7AAC",
"#. c #4875A8",
"$. c #5479A9",
"%. c #4276B2",
"&. c #447AB5",
"*. c #4A7DB5",
"=. c #437CBA",
"-. c #497FB9",
";. c #4077B8",
":. c #517FB5",
">. c #3F81BF",
",. c #778694",
"<. c #4D82B5",
"1. c #4481BE",
"2. c #4C82BB",
"3. c #5384B3",
"4. c #5285BC",
"5. c #558BBB",
"6. c #598EBB",
"7. c #5888B5",
"8. c #5C91BB",
"9. c #5982AF",
"0. c #6A85A9",
"q. c #658DB8",
"w. c #6794BD",
"e. c #7698BB",
"r. c #798FA8",
"t. c #4483C2",
"y. c #4983C3",
"u. c #4A8BC7",
"i. c #548BC3",
"p. c #5B8DC2",
"a. c #5189C2",
"s. c #4B90CB",
"d. c #5D92C5",
"f. c #5493CB",
"g. c #5994CC",
"h. c #5D9ACD",
"j. c #5695CB",
"k. c #5C9ED2",
"l. c #6293C4",
"z. c #6395C9",
"x. c #649ACC",
"c. c #6A9CCD",
"v. c #699BC4",
"b. c #759DC4",
"n. c #629DD1",
"m. c #6A9ED1",
"M. c #628FC3",
"N. c #6DA1CC",
"B. c #68A0CA",
"V. c #73A3CB",
"C. c #7AA4C9",
"Z. c #64A3D4",
"A. c #6BA4D4",
"S. c #6CA9D7",
"D. c #6DAAD9",
"F. c #69A7D9",
"G. c #74A5D4",
"H. c #75AAD5",
"J. c #7AAAD5",
"K. c #72ADDA",
"L. c #7AADDB",
"P. c #75B3DE",
"I. c #7CB3DC",
"U. c #7DB2D7",
"Y. c #6FB1DE",
"T. c #75B4E0",
"R. c #7CB7E1",
"E. c #5DA0D4",
"W. c #899499",
"Q. c #8C9091",
"!. c #8798A7",
"~. c #859BB6",
"^. c #949EA6",
"/. c #99A8B6",
"(. c #90A1AD",
"). c #A2A6A7",
"_. c #ABB4B9",
"`. c #A4AEB3",
"'. c #9FA29F",
"]. c #87A9C8",
"[. c #97B4CD",
"{. c #82B5DD",
"}. c #84B9DD",
"|. c #8BBADC",
" X c #8AB4D4",
".X c #97BAD6",
"XX c #90AECB",
"oX c #A2B6C7",
"OX c #A8BED2",
"+X c #82B5E0",
"@X c #84BBE2",
"#X c #8ABEE3",
"$X c #92BFE2",
"%X c #9CC4DD",
"&X c #8EC0DE",
"*X c #A9C6DB",
"=X c #B6C7D2",
"-X c #8CC2E4",
";X c #8CC1E9",
":X c #94C5E4",
">X c #96C9E6",
",X c #9BCAE5",
"<X c #96CBEA",
"1X c #9BCCE9",
"2X c #99C6E5",
"3X c #9DD1EC",
"4X c #98D0F1",
"5X c #A3CEE9",
"6X c #A8CDE5",
"7X c #ABD4E6",
"8X c #A4D3EB",
"9X c #AAD5EA",
"0X c #ABD8EB",
"qX c #A3D1E6",
"wX c #B3D5EC",
"eX c #B6DAED",
"rX c #BBDCEE",
"tX c #B6D3E5",
"yX c #ADDBF3",
"uX c #A8D8F3",
"iX c #B4DDF4",
"pX c #BCDEF4",
"aX c #B3DFF8",
"sX c #BDE1F3",
"dX c #B8E0F7",
"fX c #BEE0EF",
"gX c #CDD6D9",
"hX c #C2DDEC",
"jX c #C9DCE7",
"kX c #C1DFF2",
"lX c #C9E2EF",
"zX c #D9E5EB",
"xX c #C3E2F3",
"cX c #CAE5F3",
"vX c #CDE9F5",
"bX c #CAE9F8",
"nX c #D3EBF5",
"mX c #DBEDF4",
"MX c #D4ECF9",
"NX c #DAEEF9",
"BX c #D2E7F1",
"VX c #DDF1FA",
"CX c #D2F1FB",
"ZX c #E1F3FA",
"AX c #EAF4F9",
"SX c #E2EAEE",
/* pixels */
"+.*.+.E ^ @.<.3.7.5.3.<.&.+._ _ &.x.I.I.N..XtXC.d.6.i.i.4.a.a.4.4.2.i.d.x.A.A.z.4.@.+.^ ^ ^ ^ ^ ^ ~ R R R ~ ~ ) / _ _ *.2.4.*.+.@.b.J.l.:.%.( ~ I G D G U E ^ ",
"~ R U U U R E O.@.3.7.5.<.*.%._ _ %.5.G.U.6XhX Xv.d.p.6.4.4.4.4.4.4.2.2.i.d.x.c.c.c.d.p.4.4.4.*.*.@.@.+.^ ^ ~ ~ R ! ^ / _ +.] ] +._ 4.G.V.M.4.:.*.^ U G G G K ",
"R U U R U R R R R ` @.3.5.5.<.&.%.%.%.&.d.J.J.N.N.N.v.d.6.6.5.5.4.2.2.2.4.2.i.p.z.z.c.c.m.c.c.c.c.c.x.d.p.4.*.%.+.O.^ ^ / ( _ _ _ +.+._ -.p.c.c.l.p.*.O.~ R I ",
"R U R R R R R ~ ~ ~ ^ +.3.5.5.5.<.<.-.2.v. XV.c.|.%XJ.N.v.l.d.6.5.4.<.2.4.4.4.2.<.4.p.l.z.z.c.c.c.c.c.z.l.l.d.l.d.p.5.*.+.+.( _ _ _ +.] ] ] ] &.2.p.i.%.( ^ ~ ",
"R R R R ~ ~ ~ ~ ~ ~ ~ ^ +.3.5.6.5.<.2.<.%XBX.Xv.tXBX XN.N.N.N.V.V.b.v.v.l.4.2.2.4.2.-.-.2.4.p.p.d.p.i.4.-.*.-.2.4.5.p.p.p.2.@._ ( ( _ ] ] ] ] _ / ^ ^ ~ R K G ",
"R R ~ ~ ~ ~ ~ ~ ~ ~ ~ ^ ^ @.7.6.6.5.<.<.C.%XV.<.C..XC.N.N.G.|.7XrXcXvXcX7XC.<.&.-.2.2.2.-.&.&.%.%.+._ ( / / / / / / %.&.-.2.2.&./ ^ / ( ( ] ] ( ~ K J F S A A ",
"+.~ ~ ~ ~ ~ ~ ~ ~ ~ ~ ^ ^ ^ *.5.6.8.5.4.<.*.*.&.&.].c.N. X%XcXVXVXVXVXmXNXlXq.+.+.+.e.*.&.(.].&.&.&.&.=.=.=.;.] ( / / ( ] %.;.;.;.' / ) / ( ] ] ] ( / ) U L J ",
"` ~ ~ ~ ~ ~ ~ ~ ~ ~ ~ ~ ^ ^ ` <.6.v.V.V.l.5.<.<.q.8.v.N.V.wXNXVXVXZXZXgXBXrXq.+.+.3.w.+.9.,.q.%.%.&.&.;.;.=.=.=.=.;.( ) ) / ] { ] ] ] ] ( ( ( ] { { { ] ] ] ] ",
"^ ~ ~ ~ ~ ~ ~ ~ R ~ ~ ~ ~ ~ ^ +.b.%X0XeX%XB.5.3.w.5.v..XC.eXVXmXW.# r 0 x w.+._ +.3.q.4.b.r.q.*.*.*.-.&.&.&.=.=.=.=.=.;./ R ~ / ' ] ] ] ] ] ] { ] ] ] ] { { { ",
"~ R R R R R R U L R R R R ~ ^ 7.%XfXxXxXsX Xw.6.8.8.v.N.C.tXNXmX).#     < O &.+.&.5.V.J.J./..XG.A.c.l.5.2.-.=.=.=.=.=.=.=._ L K ! ) / ( ( ] ] ] ] ] ] ] ] ] ] ",
"R R L L L L L L L L L L R ^ 3..XfXcXcXcXcX7XC.8.w.8.8.v. XrXVXmX'.#   . 1 0 . 3.4.z.G.G.].,. XJ.J.J.J.J.G.z.4.-.&.&.=.=.;.;._ K S S K K L ! ) ( ' ' ' ' ( ( / ",
"R L R R L L L L L L R O.:.w.%XsXcXvXvXvXvXcX%XC.b.v.C..XrXvXVXmX`.#     O X O d l.d.b.V.oXG.G.G.G.J.J.J.J.J.G.x.4.&.%.] ;.;.;._ L S S S A A S K L ! ! U K K P ",
"^ @.7.6.@.^ R ~ O.:.w. X7XrXxXcXvXvXvXvXvXvXcXtX*X*XeXcXvXnXVXmX_.zXzXgXQ.n B (./.c = , < w x v c.G.G.G.G.G.{.J.G.p.*.( / ] ] ] ( K F S A A A S A A G  .E F A ",
"V.-X1X5X|.b.w.b. XtXvXvXxXsXxXcXvXnXnXnXcXvXvXcXcXcXcX'._.BXVXzXQ.gXZXZXZXZXVXVXMX'.< = 3 5 3 3 q c f l.l.z.c.OXc.z.d.*.( ! ! ) / ! L K F S S A A A E [.XX .A ",
">X1X8X8X8X8XiXvXMXMXnXcXxXrXsXcXnXnXnXnXrXxXcXcXcXcXcXN 5 x Q.V M `.gXmXZXZXZXZXZXZXw , < 5 5 0 < < , < R E O.#.O.O.O.@.@.! K L L L L L K K P S S A E ].[. .A ",
">X1X5X5X1X9XvXMXMXnXcXsXrXrXeXcXnXnXnXnX,X5XpXxXcXcXcXcXcX= , 5 5 q i l ).gXzXNXVXVXa 3 5 3 < 5 , q 5 < 3 A A A A A A A G I G S F P K K K K K K P F F Y 0.~.A ",
">X>X1X>X|.rXnXMXvXxXrXrXeX8X:XpXnXnXnXMX9X@X:XeXxXxXxXxXxX< 3 5 3 q 5 , < 5 M jXjX).5 < 5 3 < 5 3 5 3 5 5 8 A A S S S S S S A A A A A A A S P P K K K J Y ~.A ",
">X>X>X}.{.hXNXxXpXrXrXrX8X#X}.9XvXMXMXMXrX{.h.|.1X9XwX[.e < 3 3 < 3 5 < 5 < < B =Xz = , , , < , 3 < < < 3 5 K K K K K K K P F S A A A A A A A S S 0.Y $.U K P ",
">X>X>XI.}.kXnX,X2X0XeXeX-X#X-X,XsXnXMXMXcX{.x.U.P.P.{.z @ # , , 5 5 5 < < , , e v , @ = a 8 g B 7 3 = = < , ( ( ] ] ] ] ( / } K F S A A A S Y O.W ~.oXe.0. .J ",
">X>X>XI.I.rXxX}.K.#X,X>X}.2X8X8XqXrXcXvXeXH.[.L.P.P.T.9 z ,.Q.,.W.U.K.L.5 @ < 5 2 1 g .._.n 0./.0.W.c & 3 r L ! ) / / / ( ( ( / ! J S A S O.].*XXXoXgXoXXX=X$.",
"-X>X>X{.K.2X:XL.S.S.S.S.I.,X8X8X&X}.qX0X-XU.s.F.T.T.T.T.R.1XeXxX_.:XL.D./.l , q B | F K ^ X.XXXXb.+.oXB # , v K K K K K K L L ! ! K S A W .XnXVXnXnXNXzXzXjXBX",
"H.#X>X}.K.D.K.D.S.S.A.A.L.2X8X8X2XH.K.P.P.|.s.k.P.T.T.R.T.R.>XeX/.pX}.K.|.=XV # ^.q.H A !.n e..XC.&.%.e.V $ X./ / ! L K F S A A A A A A e.lXVXMXxXcXNXmXzXzXZX",
"N.#X:XI.K.K.K.D.D.S.S.S.A.}.2X2X2XN.D.P.I.P.j.f.S.T.R.#XR.T.R.:XW.rX|.A.D.|.=XC MXtX0.H ).z o.U ! / / %./.9 0./ / / / / ! K F A A Z A Z XXnXMXcXpXxXbXNXmXzXVX",
"c.{.{.K.K.K.K.K.K.K.K.S.A.A.U.U.I.d.Z.P.P.P.Z.s.E.Y.-X8X2XP.T.P.^. Xb.<.g..X X_.cXMXtX~.j c !.S G J K ! E W.XX/ / / / / / / L S A Z A A C.cXcXsXpXpXxXbXbXMXbX",
"d.x.i.f.A.K.K.K.K.K.D.D.D.A.Z.Z.Z.i.h.D.T.P.T.k.f.Z.R.5X-XU.P.P.r./ / / ,.r.!.r.2XpXvXhXQ.w o.E W U K F F J K K L } ! ! L L K S A Z A A  .*XpXpXpXpXpXpXpXpXxX",
"2.=.;.] i.A.K.K.K.K.D.S.S.D.D.A.Z.j.i.K.T.T.T.P.j.f.Z.@XR.P.P.k w ] / / f 3 5 q p c x B b u o.J.=Xc.5.#.I S A A A A A A A G A A A A A A A C.eXpXpXpXpXpXxXxXcX",
";.;.] / / i.Z.D.K.K.K.Z.Z.S.D.D.A.h.u..XS.T.T.R.Z.u.s.Z.D.P.P.z b !./ / ..7 < 1 5 < , , 5 5 q k B W.!.!.!.0.W G A A A Z Z H Z Z A A A A A C.eXpXpXpXpXxXbXMXMX",
"{ { / ) ) / 2.h.Z.D.D.h.i.n.S.D.D.Z.s.y.g.P.tXW.T.f.t.u.f z c f a Q.o.( :.m < = , < < 3 5 5 5 3 3 5 q a c k n  .P A Z h h ..T h h Z Z A G XXpXpXpXsXxXbXMXMXMX",
"{ { / ) ) ) ) _ 2.d.h.i.] 2.x.A.D.S.j.t.t.h.D.*X, < 3 < , , < = O # < 8 X.B < , , , 5 q q 5 < 3 5 5 5 5 < , , g e.K F A Z Z r.Z Z Z Z Z  .*XpXpXkXxXbXMXMXMXnX",
"{ { ( ) ) ) ) ) ) ) / / / ( 2.g.Z.S.S.s.t.t.s.Z., , = , 3 5 5 5 # X . . X O = , , , 5 5 5 5 5 a < 5 3 < < < < < n [ ] ! Q L 0.r.J P G Y ].wXpXpXpXxXbXMXnXcXrX",
"] ;.] ] _ / / ) ) ) / ( _ ] ] { 2.h.Z.Z.f.u.t.t.1 , , , 5 q q 5 = X . O X X = 5 < 3 3 3 , 5 5 q , 5 w w 1 < < 3 f [ [ [ { ] ( /.9.O.@.J.wXpXpXpX5X5XwXwX6X.XG.",
"] ;.;.;.=.;.{ ( / / ( ] ] ] ] ] ] ;.i.Z.Z.x v N 7 < , < 3 5 5 5 , O . . X @ , q < 3 5 3 , 3 5 5 , < k 5 3 5 3 3 5 ,.<.[ [ 1.>.>./.XX#XiXpXsXpXiXL.n.A.d.-.&.g.",
"] ;.;.;.;.=.=.;.] ( ( ( ] ] ] ] ] ] ] a.n.S., , , 5 < 3 5 3 , 3 , & # O 0 < < 3 3 5 5 3 , 5 5 < 5 , < < < q q 5 2 n *Xb.e.[ [ [ u.[.jXpXpXpXiX:XK.A.m.&.%.x.L.",
"] ;.;.( ] { ;.=.=.;.] _ ] ] ] ] ] ( ( ( 2.h.X @ < 5 3 3 5 3 , 5 5 3 5 , 5 , , = < 3 3 3 < 5 < < 5 < , 3 , 3 5 < 2 v ].4.b.{ { =.J.0X=XpXpXiX5X{.L.L.z.&.d.L.{.",
"] ;.{ / ! / ] ;.=.1.=.=.=.;.;.;.{ ] ] _ ( %.. . < , < 5 5 3 , 1 < 3 5 3 , = = & , , = = , < < < , = , < , = < , = 9 ^ / @./ &.v.8XpXpXpXiX1X{.L.L.L.4.i.L.{.{.",
"{ ;.{ ) ! ! ! ( =.y.1.2.=.=.=.=.=.=.=.;.;.] X . , & , < , = = = = < < , & = # @ # # @ < a ] _ M ( M 9 > & & < a 8 k @./ _ q.J.uXpXdXpXiX>XG..XL.L.G.4.A.{.+X+X",
"{ ;.{ / } } } ! ] =.y.y.y.y.2.1.2.1.1.1.1.1.. X & # # @ O X X # t.1.v v 1.O X @ 1 2 # < k 1.=.M { OX{ ] d # # < 9 g :.2.C.#XiXdXdXpXiX1Xx.&.c.L.L.l.l.L.+X+X+X",
"{ { ;./ ! ! } } ) ] =.y.y.y.y.y.y.=.=.=.2 1.1.1.> f =.=.=.t O : 1.1.=.1.=.1.1.1.$ = + , 5 d m x C.=XC.t.t.t.t.M # 5 C.U.8XiXkXdXaXiX1Xn.] V m.L.L.3.N.{.+X+X+X",
"( ( { ] ! ! ! ! ! ) ] ;.=.y.y.y.=.;.{ { ;.;.;.;.2 ] ] _ ( d 2 $ f ( ] ] ;.{ { { =.0 X , l o.,.b ].=X X Xf.f.g.h.w 0 7XiXdXpXpXiXyX>Xn.1.z 4.K.I.c.4.G.{.I.I.+X",
"! ! ] { ( ! ! ! ! ! ! ( ] ;.;.;.] / ) ! ) ) ) ) : ! ! ! ! l d 9 x d x ! ) 0./ *.d.{.2 # 5 a x z `.,XgXjX:X:X<XuXaXN iXiXiXiXiX8X@Xg.t.V +.A.I.L.4.4.J.L.m.G.+X",
"L L / { ;.] / ! ! ! ! ! ! ! ) ! ! ! ! ! ! ) ) w e ) ) ! ! 9 2 = 2 k 9 ) ) +.6.{.uXyX(.k C e aXaX*XOXOX=XgXtXtXiXaXtXiXiXuX8X-XS.s.t.V L p.L.I.c.( &.x.x.i.c.I.",
"L L ! ' ;.;.;.] / ) ) ! ! ! ! ! ! ! #.( *.4.p.0 w 0 &._ ` X.w < 2 < f X.6.J.3XyXyXyXoXx M 5 uXuX8X0XtX*X=XtXhXjX8XuX3X<X:XZ.s.u.t.z K R c.|.A.-.~ ! %.-.2.d.L.",
"L ! ! ' { ;.;.=.;.;.] / / +.) ) / %.4.c.@X4X4Xz f k U.c.l.~.v g V m k w l l N yXyXyXB M n w ,.I.{.S.U.%X{.OX=X@XR.P.Z.A.s.s.u.t.c K S I p.l.&./ ! U ~ ( %.2.m.",
"! / ] { ;.;.;.;.=.a.i.i.i.4.2.4.z.U.<Xe 3 a a y q a 4X4X[.X.M c !._.,.k 5 e 5 < < 1 < q q q w z X.q.f.d.oXC.e.].s.s.*XV.u.u.1.e J S S S $.K R / ) R U U ! &.a.",
"( { ;.;.;.=.=.=.i.A.K.K.K.L.R.;X<X<X<Xx , < < 3 5 3 < & X X @ + 2 5 e 2 , , < 3 < < < 5 5 5 3 3 < 5 q e w f v M s.s.u.u.u.[ 7 K S S S 0. .P R _ _ ! U U R ] -.",
"{ ;.;.;.2.g.g.i.x.c.l.d.l.c.c.V.V.G.V.N.c.< , , 5 < < = X X . X . . X X , = = , 3 5 5 5 5 3 3 3 < 5 5 5 < , , = a u.t.t.=.y { ' K S S K W P ~ %.] ) R U R ( =.",
";.;.;.;.y.g.n.g.&.R L L L K K K K K S Z Z 2 , = , 3 5 < O X . . . . X X , , , = 5 q q q 5 8 0 < q 5 3 = , < , < < N ;.y.y.u.y.y.! F P U J J / &._ ! R R R ) &.",
"{ { { ] ( ) ! R L L L L L U R R R , 2 5 1 , , = = 5 q 3 @ X O O X . . O , < , < 1 5 3 5 q 8 8 5 < 5 5 8 1 < < < 5 a W.k 1 y.=._ K S L U J U %.&./ ! U R R ! %.",
"{ ] / R K J K L L L L R ~ / / _ _ ( = , , = 3 , < 3 5 = O O # @ & # O O < 5 < 3 5 3 < , 5 5 5 q = 1 k 5 3 < 3 < < < 8 3 =.;.) G S K ! L G ^ &.&.) ! ! ! } ! _ ",
"+.#.U G S S F G J J R / _ ] ] ] ] ] X X . = q 5 5 q 5 5 = 1 5 5 5 q 5 , 3 , 3 3 5 5 < < 5 < < q 5 < 3 5 , , 5 5 * % k ~.~ G A S J ! ! K J +.-.&.) ! ! ! } R ) ",
"e.[.e.W F F S S S F L ) / / / / ) R X X X , 5 < 5 5 < 3 , 5 5 < 5 q q 3 = & , < , , , < , , , 4 4 6 6 6 ; 6 6 ; ; - 5 Q.!._.^.J ! ) ! P U %.2.&.) ! ! ! Q R ! ",
"rXVXlX$.K J F S S S S J K K K P S < . . O < < = , = @ # & = & # = , , = @ # & & @ # # # @ # A A A A , < < , , < 5 4 4 q 6 c c c ) ! K S R &.2.&.) ! ! ! L Q R ",
"tXVXcXq.~ R K F S A A G  .$.$.I x O . . # < , , , , 2 : < < X . # # # # , , O X X , 2 8 < 5 S A A A 2 , , < < 3 3 < 3 3 3 < , > 9 ! P S R &.-.-./ ! ! ! ! ! } ",
".XMXhXe.E K J F A A A  .OXBXlX< X . . X = , , 1 7 | H A T P K O # $ O 8 ..../ / w # X # # , z J K  .$.= = , 5 5 5 , , < 5 < < , < K S S L &.-.2.] ! ! } ! ! } ",
"*XMXVXjX..A A A A A A ~.cXZX% X X X X X @ o = 8 M F F S S K ) < / / : k / / / / / 0.) ) q o e ~ 7.OXhX, , < 3 3 5 3 < 3 , e 8 1 < 3 S S K %.2.2.&./ ! } ! ! } ",
"vXVXVXtX .A A A A A A e.lXZX* % % @ @ @ X + X + w J J G S L ) < / / Y / / / / / / / ) ( q % w b .XNXZX5 3 3 5 < , 5 5 5 < q < 5 q < e S F 7.-.2.2.;./ ! ! ! } ",
"VXVXZX].Y A A A A A A  ..X< % @ % % + @ o + o o . X X $ O J ! & / / / / / e : / / ) ( x 6 - , 2 5 5 = 3 < 3 5 < , 3 , 5 5 3 < < 5 , < S S #.q.2.2.2.&./ ! ! ! ",
"VXVXZXtXq.Y A A A A A A W % - @ X % % % @ @ @ + X X X X X @ 2 O ! ! ) ) 2 * % + X % o X + X X . % + = & = , = ! ! L K S S , & # 2 1 5 S S oX@.=.2.2.2.&._ ) ! ",
"NXNXVXVXhXb.#.Y G G D G D % % % @ 6 - ; % + % % % % @ @ * * 4 % 2 k 2 + @ @ @ @ X . . X X X X . % @ @ O O > L L K E #.I S S S S S 2 w S S ..R %.-.2.2.2.2.%.) ",
"vXxXpXcXMXnX*X].q.9.$.$.#.6 * @ o * % * @ X o % % @ o o @ + @ @ @ @ % * * * - * o .   . . X X . X O O + + < F S S b.6Xq.J S S S S S @ S S G S R +.=.2.2.2.-.( ",
"wX:XJ.|.eXnXMXNXNXnXcXrX*X X* + @ * * * % @ # & * * % * * % * & % * * * + X X .           . . . X X % % + A A A A C.6Xq.K S S S S S d S S G S S U ( %.&.-.-._ ",
"J.x.G.{.2XpXcXvXMXNXNXNXNXNX2 . X O O @ @ @ @ @ @ O X X X X X . . . . . X X o X . . X . .       X % - % $. .H S A W #.I S S S G S S S S S S S S S P L ~ ( ( R ",
"h.G.2XpXxXxXxXxXxXMXNXNXZXZXNXNX5 % + @ @ @ @ @ @ @ o @ @ + @ @ @ @ @ @ @ @ @ @ @ @ + % + X X X % % M MXhX*Xq.H A A A S A S S S S S S S S S S S S S S S S S F ",
"g.2XpXxXkXxXkXkXpXvXNXVXAXAXZXNXl % @ + @ @ @ + @ o + + + @ @ @ @ @ @ % % * * % % % + X . . .   + , MXMXMXnX*X .Z A A A A S S S S S S S S S S S S S S S S S S ",
"z.6XkXkXxXkXkXpXrXvXNXNXAXAXZXVXnX- % % % % % % % @ % % % % % % % % % % % % % @ + o X X X . . . @ w MXMXhX*Xe.I Z Z A A S S S S S S S S S S S S S S S S S S S ",
"g.$XeXpXpXpXwX5X:XrXMXNXZXAXSXVXjXw.* % % @ @ % @ @ % @ @ @ + % @ @ @ + @ @ @ @ % % @ o X . . . % pXxXcX]. .G A Z Z A A A A S S S S S S S S S S S S S S S S S ",
"n.L.>X9X9X5X}.A.h.|.rXMXNXZXSXgXBX].; % % % % % % % @ % % % @ @ % @ % @ @ @ @ % @ @ @ o X . . X < 1X8X8Xw.W G S A Z Z A A A A A A A S S S S S S S S S S S S S ",
"I.@X#X#X-X@XP.n.g.g.|.pXMXNXSXgXNXhX; @ @ @ @ @ @ @ @ @ @ @ @ @ @ @ @ @ + @ @ @ @ + @ + X X X o -X1X8X8X&X9.I G F A A Z A A A A A A A A S S S S S S S S S S S ",
"#X#X#X#X#X#X@Xn.g.g.U.>XxXmXzXSXNXNX; @ @ @ @ @ @ @ @ @ @ @ @ @ @ @ @ + + o + @ + @ @ + o X X % :X1X8X8X8X|.3.R J F A A A A A A A A A A A A S S S S S S S S S ",
"#X#X#X#X#X@XI.n.g.g.I.-X9XBXzXzXZXNX6 % @ @ @ @ @ @ @ @ @ % @ @ @ @ @ @ + o + @ + o + o X @ - , >X1X8X8X8X9X:Xw.#.R J F A A A A A A A A A A A S S S S S S S S ",
"R.R.+X@X@XI.Z.g.g.g.I.,X6XwXzXMXNXNXs a a s u i u y i 6 y y y i i u y y i y a y i 6 y y u u l BX9X1X1X9XrXfXpXyX|.w.@.E K G F F F F S S S A A S S S S S S S S ",
"h.n.Z.A.A.n.g.g.g.g.H.,X8X>X8XpXcXnXMXNXNXNXNXNXNXmXmXmXmXmXmXmXmXmXNXBXlXlXfXrXrXrXxXlXBXmXmXmXBXeX9XrXBXBXcXxXsX0X:XN.@.I G F F F F F F S S S S S S S S S S ",
"g.g.g.g.g.g.g.g.g.g.n.:X7X9X1X>X1X0XpXxXxXcXcXcXcXcXcXBXBXBXBXmXmXBXrX9X1X>X>X<X<X:X>X1X9XhXBXzXmXmXmXmXBXBXxXiX9XiXiX8X|.3.K F S S S S S S S S S S S S S S S ",
"g.g.g.g.g.g.g.g.g.g.g.{.qX9X9X9X8X<X:X>X2X,XqXqX5X5X5X9X9X9XwXrXrX9X2X3X8X8X8X8X8X8X8X8X<X>X9XhXBXBXBXBXBXcXeX0X8X1XpXiX8X}.@.G A A A A S S S S S S S S S S S ",
"g.g.g.g.g.g.g.g.g.g.g.Z.:X8X9X9X9X8X8X8X8X8X8X1X1X1X1X1X1X1X<X>X>X3X8X8X8X8X8X8X8X8X8X8X8X8X<X>X6XwXwXwXwX0XyXyXuX8XsXcX0X3XU.#.G A A A S S S S S F F F F F F ",
"g.g.g.g.g.g.g.g.g.g.g.g.H.,X9X9X9X9X8X8X8X8X8X9X9X9X9X9X0X0X0X0X0X0X9X9X9X8X8X>X-X#X-X>X1X8XuX<X@XL.K.K.I.-X8XyXyXyXsXcXsX8X<XU.#.G S S S S S S S S G G G G F ",
"f.f.g.g.g.g.g.g.g.g.g.g.h.I.,X9X7X9X9X9X9X8X8X9X8X9X9X9X9X9X9X0X0X0X0X9X9X0XqX:X}.H.Z.A.U.-X1X8X3X@XK.D.D.K.-XiXxXxXdXxXbXyX3X4X}.#.G S S S S S S S S F G G G ",
"i.f.f.f.f.g.g.g.g.g.g.g.g.h.I.,X7X7X9X7X7X9X9X8X2X>X>X2X,X8X9X9X0X0X0X0X0X0X0X0X0X1X{.A.n.Z.I.<X8X3X@XK.D.D.L.iXMXCXsXxXbXdX8X3X1XU. .S A S S S S S S S G G G ",
"%.2.a.f.f.f.g.j.g.g.g.g.g.g.h.H.:XqX7X7X7X7X7X,X}.H.J.J.L.:X8X9X9X0X0X0X0X9X9X9X9X0X8X-XS.n.n.L.<X8X<XI.K.D.K.pXCXCXbXbXbXbXiX3X3X3XN.E S A A S S S S S P J K "
};
