/* XPM */
static char *d3a2d98967b140e0ff1f90cc22bc447dRGGMyKIziuYAzoc1[] = {
/* columns rows colors chars-per-pixel */
"79 79 21 1 ",
"  c gray47",
". c #484848",
"X c gray25",
"o c #888888",
"O c #585858",
"+ c gray44",
"@ c #808080",
"# c #606060",
"$ c #505050",
"% c #686868",
"& c gray22",
"* c #2F2D2C",
"= c #1B1A19",
"- c #909090",
"; c #826C5B",
": c gray61",
"> c #664D37",
", c #543C25",
"< c #78614F",
"1 c #715945",
"2 c #9D8671",
/* pixels */
"<O@-o@@OOXO$.@o@o--::-+++ @@ @ +&O%%%$$%$#O$$$$#o#OO#.+o@oo-:-++% @o@o#O*,<;;;$",
"1:: ++@#.OO%$:o ++o@@o --o@@o  %XOO#.O#%#OOO$$O@%O%%+. @%%@  @+--o@oo-@.=>>;<;#",
"2:-@+@#$#+  $:  +   @@+@  @o+% %$$OX$%O%%#O#O+@%##%#%$+ %+++  % +@oo o@.*,>;<;.",
"oo@ @ $O%+ +$:++@%@@  @  @ +++ %O$X$%O#%#O++  #%#####$#% #  ++ + o++ o@.&*>;<O>",
":-  @#O$%%+%O:  % o@+@ +@+%+@+o+X*X%#O%#OO#OO###%O%##O%+#+@ % +% %#%---$&*,,>,,",
"-  +@$$#%+O+# ++ @  @ @@+   %@o#=&######O###%%++###O#&#%+ ++ +  %++ +o%$**XXX,,",
"% ++OOO +#%%.  +o +@ @++  ++@@ O*X##%##%$##%#%+%##%O$&#% +% + %%+ ++ +O#X$+  @@",
"++%X.$$+#%#%.o@o +@o+ + +%+@   #&.O%#%#######%%%O%#$O&$+%% @%+% +#% +$% .O#%#  ",
"%+..#.$+ $#%X@o++o+%@ +++@  @@%%&.#%#%##O##%%%$##O#OO*O#%@%#++++% ++O%#+.%%%#  ",
"%O#+O%++###$*@@%##%@o ++@+ @@+ %==%#%#%##O###+OOO%%$.&##OO#++%%% %+OO%+ &#%#%% ",
" $O.O+###$X.*# @#++o +@o  @@ @@X=**$%#%#%##O%#OO%#%O&.O%O%%+##+@++..O% #&O%%%#+",
"$$O#%+%O%#XOXX$    +% @@+  @ @OX.XX*.O%$%%OO#%O$O$$.&&O#####O+  OO*O#+#$X&O#%%%",
"$XX.$$$.X.#+%OX&$+o-o@@oo-oo+...#%#O$X..&**&..XX&.&&X.&&**&&$###..$#$#OO##OO###",
"%@o-:-o--:o:- @%$&#$##OO..&&==&.O%%%O$$&*&X$+#.$$OX&$O$O$**X#-@ @@--#+#@@o@ %+$",
"o-oo- + @@@o++ +o#.XX*&XX...&$XX..X.$$$&.$$O#OOOO$.&$O###.XO :o::::@@ o    + +O",
"-o    +  @@@%+ @-+..XO$.$$##&.$+  ++##..$O$$OO.$$OO#X.$%%$.O@o  @@ @@@% @++% ++",
"o   +%+  o@%+@@ooo.$###+%+%$$+@+%%%#%#.XX$OOO$O#O%%#$.O%%%O$o@ @o  @@+ @ %+ %++",
"o  %% @+@+ @@ + o@X.$%%%++%+#OOO++#O%#O.X$O.$#%O%O#%%O.O+%*Oo+ @@  +@     @@+ +",
"o +% @  +@ ++@@ #%O&O%%+@%%+O$$#+##%O##.&O.XO#O#O%#OO%#$X$=Oo @oo@@  @ @   @ + ",
"@  @++   +  @  +++*XO#% +%+O$#.% +++#%#.X##%OO###O##%#%O.$*$o+@++@@ @+ @@o@@+++",
"@@@+  @     + O+o+=XO%  ++ %O##@+%%+%#%X.%%O##%#####O%$O+.*% % #@o ++  + + ++++",
" +@  o  o   %% @ %*&O#+OO%%#%++ + ++##O.O#%##+##+###O#%%#$. %+ %@+ +  + +++  ++",
"O++%@ @@# @ +o @@+*.$O%$O+%##%%#%#%###O*$O#$%#%+$#%+%+#%%OX#%@@%o%+++@@++ @ + #",
"&.#+%$$$.%O#@++  %&$O#%.O#%#%%#%###%%#O=.O####%#O#.$%OO##.&O -++@+    +   @+  O",
"O&=&$O$OO#$%#   %.X.$#.X+@++#%%%%%%%%O$*&O####O##$.O$OOO.*.$$+O#@-@@+        %O",
"$.$%%#$X.$X&*X..$$..$.*X...$$$$$$O$$..$.X.$$$$$$OO.X$$$X$$$.$X=X...X.X...$...&.",
"%OX$O%.$+ +@$.X..$$OOO$.*$%++++  +%%+%+%%%##&$O @@@o@@@@@@++%+$X*&&&.#%#.XXXX&X",
"+%#OOOO+   %OXOO#$.%##O#.@+%%%%#%%%%#%#++%%+#$ o ++%+%+%+%%@@+O$&XOO++%+####O%$",
"#O% .$++++%#OX.X&.$$#%#%$@%%%%%++%+++#%%#O% #$ @++%###%%#O%++%##&#+ @@-%OO%++#O",
"##+%%O%#++$#%..OOO$$##%#$ %%#+@+%%+%#+%###+%%$+ %%$#%%%%%++###%#X%  +--+%%+%#+#",
"#%+# &% %%#%+OX%O.$%O#+#.+##% %#%+%#+ O##%+#%X%+###%+%#+%##%O#%#. +@o-%#%+%#+ O",
"%%%%+.  +%##OOX.O#%#% #$.%#%%+#%+##++##O%%%%#.+#%###O%###%%#%+O$.@ oo #%+##++##",
"%#+%#$%%++####$$%O#++O#O.%%%#% %O#++%#%%%#+%OO@%%%###%#%+O###.#O$@o+#% %O#++%#%",
"#+%O#.O#+%%+%+#O$O+%O%%.$+%%#% O%+%%#%#%#+%O%O +%#%+%+++OO%OO%%.$+%%#% O%+%%#%#",
"#+O#$XO%++ %+#OX%+%#%%#$$+%#%%#O+%%##OO%#+O#%.%+%% %+##O%+%#%%#$$+%#%%#O+%%##OO",
"%##%...%%+ %##%$%##%%#%#$+#+##%%+%####%#%##%%..# + %##%+%##%%#%#$+#+##%%+%####%",
"+O%#..O#%###++%$$#%%#%%%O#+#%#%%+%###%%%+O%%%.$$#%##++%###%%#%%%O#+#%#%%+%###%%",
"O%%#$$#O%%++#OOO$O$...$O$%%#%%++%##%%%%%O%%%#$$$O#++#OOOOO$...$O$O##%%++%##%%%%",
"$$$$$$$$OO$$$$$$$$$$$$$$O$$$OO$$$$$$$$$X$$$$$$$$O$$$$$$$$$$$$$$$O$$$OO$$$$$$$$$",
"+          +&&&&.X&*&&$.X.X.&*&*&@++++%++              +$%@+%#@@     ++%Oo +++%",
"++++ ++  ##%*&$*$OOO##X..$$$X$.*&+#%%$$%++++ ++ @++ @%#%$@ + @%%#%++%+%%$ %%%$$",
"%%%###%%O##%&X%$$$%##%O@+%##%#OXX+O#$O#%%%%###%+##%+#%#%$@ %##%@@ ++ %%%$+O#$O#",
"%%###%%####%X.OO$#OO%%%%OO%+#OO.%%#$O%O%%%###% %%% %#%  $#%%#%#+%%+ #O%%$%#$O%O",
"#$#%%%#%#O%%X.O#+O+%%%%O#%##O$OXo%OO%O#%#$#%+ %++ %# +@+.$##+O+%%+%###%%O#OO%O#",
"OO%%######%%.$O#O%  $ %#%O$$#$#$@#$%#O%#OO%++%++%%# @@ @O.%%O%%#+#O#+# +.$$%#O%",
"O%%#%#%%#%##X*.OO%+%#####%%#.%#X##%#####O%%%+# +%O o o+ $*O#%+++#%%%O+ #*$%####",
"O%#%##%#%#%#X&$O%%%##%#O@+#O##.&++%#%##%O%% .%+%##@@  @@.&$#+%##%%##++%#X%%#%##",
"####%%#%#%#OX&*O+#O%$#O+%#O#+O$$%O%%#%#####O#+++Oo @ @++X$X%###%#O#+%%++.%%%#%#",
"O##%%#O%%O#O*X&.##OOO+%######O&$$O%%#%##O#O++%OO  # @  %*$$O# ###+%%++O%$%%%#%#",
"#O###%OOO%%$=X$..$O#%O%#%O##O$$O*#%#%#%##O##%+#$@o@@ o@X=$.O$$##+#%++#%+.%%#%#%",
"%##O%#OO%%O.=&X$.$#%.$#%OO%#$$#X*O#%%#%#%### #X% %%@@+$X*OX#$#% %%++##+OX%%%%#%",
"%%OO#%##%#X*=*&OOOO$.#%%$OOO.O.*&&O##O%#%%#%%+$#%@  +$*X*X&$OO++#%%%O%O.X.%%%%%",
"$.X.$$$$XX.&***&&&&*$O$XX..X*X&.O$XX.X$X$.X.$$..X$$$X$O+%#...$$$..&$X$X.$$$.&**",
"# @o-o@o--@-@ o@+$&X#@%XOo@@%#O+  +##%..O+  @  @oo o@+@  #XO o@ oo+@$.$##$OO..&",
"@o@@o+%+   @%%+%o .O#%+ +-o+++ +%%%#%#.. @  @%#%+++ ##%#@ $+o-o:-:-O$.#+++%% +O",
"o@++++%++   #%+ o%XOOO%%$##%  O%+##O#O#.@ %%%%#%%+++O#%+@%.+# @ @@ #$##+  #% +%",
"@+++%#%++@ #%  @@ $O$O#+ .#  %%+%O#%X##. %%%#O#%% +O#++   O%  %o-@+-+XO%+%# %++",
"@++##+ % %+  +%+@+*$.O#+%+%%+%%%%%+$$ #. %%OO%+#+#%++%#% +X#   o@@@ @O%%%+% + +",
"@+%#+ ++% +%%  +OO=.O#%% + %%+%+%%O#+#%. %#O%+%%#+%##++%$O&O  o@@@-%o##OO%%  + ",
"@++ %%+++%++ ++%%#*$O$%#+#%%+#%+++O ###.O#%+##%%%#%%+%%###$#+ o  o@oo+O$+   +++",
"o  %++ +++++%+$%@#&X$.%$#%%##%%##X+####.$#+#%%+%%%%%#%.# #$%++  @: @ @+*%#+%+++",
"-+ ++@++@+++##+ +O&.$$%O%#%#%%##X##%%#%$#O+%% %% %%%OO%+%O.     o+o oo@.X#%+ + ",
"%++# + @#+ +%@+  #*&O#+O O###++O#++%#%%..$%O+%+ O%+%# %++O*%@o@+@%+ +o $.% ++  ",
"#+++++ +%+OO %%++O=*%###+#%%%%.X$#+#%%O&.$#%%%+%#%$$+##%#$*Oo-++@ @@   +O%%%  .",
".O%+++%%+%#+%+++#&&.*XX$+@++##.X$#%%%OX&*X$%%%##%#O%#%%%$*=&#+O# o+$X..###% +X=",
"X**&&*&&*&*&XXXXX&&**&=*X.XX&&XX$O$$X*&$&$$$$$X&X&==X.$X...X$.X.$..OOO.*&&&.**.",
"#.&===$$*$$O$$O$O$XX.X&*=**X$%+   +++%+%#%##&X*#O%O@ ::o--@@+#$.=&.OXX.$$%%+&X.",
";;1,*=$.O%%#%+ ++##+ .&O*X=.#%%#%%%%#%#++%%+#&O#%#%#@@  @  -- OO*..X$%%#%%%+#&&",
";1<,**O%%+%#%%%  #+@%XO%X**%%%%++%+++#%%#O% #X%#%%O @+  +% @@ %+&$&O%%%++% o+=,",
";<1*>=Xo+%O  @  @@@o.$@%*.O%#+@+%%+%#+%###+%%.O##O#o     @@+#$$OXX$%#+@+++  O**",
";>,<1=$:##% o++@@% +.#:+*.$#% %#%+%#+ O##%+#+=.O#%+ @ +@ ++ %%+#.&##% %+@@%$,*>",
">,;;<>#-%#+ % +#%oo#+:@#*X$%%+#%+##++##O%%%%#&@@o+.+% +++  ++@+O.*$#%@  @#&,*,1",
",,2;<>#: o@%#%#+o@#+o@@%*XO%#% %O#++%#%%%#+%O.:oo-+O+ + @%% @%+%.****XOX&*,,,1<",
">> ;<>#:-%+ + @@o$+o -:O*$.%#% O%+%%#%#%#+%O%$-@@@-++@@@%%@ %  O&.O +#%**,>>><<",
"1>;;;X+@%% %+#%#%@o @o:%*$.#%%#O+%%##OO%#+O#%.o @@:@%++% @ +  +#&+%%%%#,,> >><<",
"<11;;O. %+o ++%%%o @-o@+X..+##%%+%####%#%##%%. @ @o+O% @ ++  + +$+% ###,,1;>><<",
";1>;;%X$#+ ++O=# +@-@:@+X&##%#%%+%###%%%+O%%%&#  +++%  +++  +  +.# #%$.=*,>1>;;",
";;>1<O#&XO##=*OOO+@@@@+%.$##O#++%##%%%%%O%%%#X&$#%  #O#O#%#OO$OO.%%##.&*X,>>< ;",
";;<<<$$$.X.&*$$$$$$$$$$$XX.X.O$$$$$$$$$X$$$...=**======*&.$$$$$$O$...X&XX,>;;;;"
};
